<?xml version="1.0" encoding="UTF-8"?>
<svg version="1.1" xmlns="http://www.w3.org/2000/svg" width="1536" height="1024">
<path d="M0 0 C506.88 0 1013.76 0 1536 0 C1536 337.92 1536 675.84 1536 1024 C1029.12 1024 522.24 1024 0 1024 C0 686.08 0 348.16 0 0 Z " fill="#FEFEFE" transform="translate(0,0)"/>
<path d="M0 0 C1.57258575 -0.00503792 1.57258575 -0.00503792 3.17694092 -0.01017761 C6.61870531 -0.01962285 10.06042074 -0.0216273 13.50219727 -0.02270508 C15.90918497 -0.02592147 18.31617249 -0.02928583 20.72315979 -0.03279114 C25.75896661 -0.03876585 30.7947563 -0.04063268 35.83056641 -0.04003906 C42.26728754 -0.03993739 48.70389851 -0.05360283 55.14059353 -0.07081127 C60.10871379 -0.08195463 65.07680757 -0.08395757 70.04493904 -0.08342934 C72.4174748 -0.08460541 74.79001134 -0.08900619 77.16253471 -0.0967617 C80.4860383 -0.10661136 83.8093047 -0.10366416 87.1328125 -0.09765625 C88.58652 -0.10608551 88.58652 -0.10608551 90.06959534 -0.11468506 C107.62580135 -0.03445773 124.94436611 6.82026745 137.56860352 19.14526367 C149.43179657 31.71075776 154.23289738 44.72443202 154.30950928 61.98066711 C154.31656395 62.72703137 154.32361863 63.47339563 154.33088708 64.24237698 C154.35310779 66.72081469 154.36861096 69.19924576 154.3840332 71.67773438 C154.39853867 73.4640024 154.41341562 75.25026745 154.42863464 77.03652954 C154.46838066 81.87338924 154.50180297 86.71027156 154.53322124 91.54719186 C154.55299274 94.57322242 154.57383159 97.59924388 154.59497833 100.62526512 C154.66087059 110.10526853 154.72279877 119.58528588 154.7791574 129.06535083 C154.84413371 139.98655313 154.92227927 150.90755624 155.01183963 161.82858402 C155.08039576 170.28653977 155.13713302 178.74452422 155.18500638 187.20262212 C155.21382042 192.24714066 155.24756407 197.29150854 155.29366302 202.33590126 C155.33671881 207.08257852 155.3650316 211.82912322 155.3823185 216.57596207 C155.39111998 218.3113332 155.40509051 220.04668758 155.42480278 221.78196907 C155.52602369 230.97135916 155.29397291 239.38767615 152.13110352 248.14526367 C151.6808462 249.45168052 151.6808462 249.45168052 151.22149277 250.78448963 C146.02744387 265.37531855 136.76362074 275.60816812 123.06860352 282.58276367 C122.42028564 282.91300537 121.77196777 283.24324707 121.10400391 283.58349609 C112.26333608 287.822446 103.66766601 288.44581606 93.96459961 288.45166016 C92.77793701 288.45998367 91.59127441 288.46830719 90.36865234 288.47688293 C87.13684403 288.49674809 83.90518514 288.5076052 80.67332411 288.51270938 C78.64577743 288.51637326 76.61825475 288.52262373 74.59071732 288.52971077 C67.49300316 288.55415248 60.39536149 288.56724498 53.29760742 288.57080078 C46.72134712 288.57442845 40.14555563 288.60428171 33.56943834 288.64620537 C27.89177118 288.68110919 22.21425786 288.69635269 16.53648436 288.69704682 C13.15944318 288.69783309 9.78325754 288.70870351 6.40626144 288.73504448 C-14.31406912 288.88378485 -31.72891815 287.77356189 -47.61889648 272.83276367 C-60.22181526 259.3253292 -65.64602027 244.24761534 -66.43212891 226.04052734 C-66.493284 224.640588 -66.493284 224.640588 -66.55567455 223.21236706 C-67.17294389 207.17622354 -67.07634209 191.11648585 -67.10717773 175.07104492 C-67.11123753 173.25538813 -67.11535475 171.43973147 -67.11952782 169.62407494 C-67.13846166 161.10838554 -67.15273256 152.59270432 -67.16113979 144.07699805 C-67.17095511 134.30435004 -67.19743525 124.53192587 -67.23764068 114.7593568 C-67.26784108 107.15455612 -67.2826112 99.54981975 -67.2859208 91.9449603 C-67.28826077 87.42266486 -67.29708847 82.90061198 -67.32238197 78.37838173 C-67.34574635 74.13534778 -67.34986266 69.89271516 -67.33962059 65.64963341 C-67.33912765 64.10132888 -67.345376 62.55300385 -67.35917664 61.00476074 C-67.509401 43.14329448 -61.41017321 30.4528816 -49.25952148 17.43432617 C-35.11644998 3.89210411 -18.98118696 -0.00885743 0 0 Z " fill="#FDFDFB" transform="translate(706.868896484375,229.854736328125)"/>
<path d="M0 0 C1.57258575 -0.00503792 1.57258575 -0.00503792 3.17694092 -0.01017761 C6.61870531 -0.01962285 10.06042074 -0.0216273 13.50219727 -0.02270508 C15.90918497 -0.02592147 18.31617249 -0.02928583 20.72315979 -0.03279114 C25.75896661 -0.03876585 30.7947563 -0.04063268 35.83056641 -0.04003906 C42.26728754 -0.03993739 48.70389851 -0.05360283 55.14059353 -0.07081127 C60.10871379 -0.08195463 65.07680757 -0.08395757 70.04493904 -0.08342934 C72.4174748 -0.08460541 74.79001134 -0.08900619 77.16253471 -0.0967617 C80.4860383 -0.10661136 83.8093047 -0.10366416 87.1328125 -0.09765625 C88.58652 -0.10608551 88.58652 -0.10608551 90.06959534 -0.11468506 C107.62580135 -0.03445773 124.94436611 6.82026745 137.56860352 19.14526367 C149.43179657 31.71075776 154.23289738 44.72443202 154.30950928 61.98066711 C154.31656395 62.72703137 154.32361863 63.47339563 154.33088708 64.24237698 C154.35310779 66.72081469 154.36861096 69.19924576 154.3840332 71.67773438 C154.39853867 73.4640024 154.41341562 75.25026745 154.42863464 77.03652954 C154.46838066 81.87338924 154.50180297 86.71027156 154.53322124 91.54719186 C154.55299274 94.57322242 154.57383159 97.59924388 154.59497833 100.62526512 C154.66087059 110.10526853 154.72279877 119.58528588 154.7791574 129.06535083 C154.84413371 139.98655313 154.92227927 150.90755624 155.01183963 161.82858402 C155.08039576 170.28653977 155.13713302 178.74452422 155.18500638 187.20262212 C155.21382042 192.24714066 155.24756407 197.29150854 155.29366302 202.33590126 C155.33671881 207.08257852 155.3650316 211.82912322 155.3823185 216.57596207 C155.39111998 218.3113332 155.40509051 220.04668758 155.42480278 221.78196907 C155.52602369 230.97135916 155.29397291 239.38767615 152.13110352 248.14526367 C151.6808462 249.45168052 151.6808462 249.45168052 151.22149277 250.78448963 C146.02744387 265.37531855 136.76362074 275.60816812 123.06860352 282.58276367 C122.42028564 282.91300537 121.77196777 283.24324707 121.10400391 283.58349609 C112.26333608 287.822446 103.66766601 288.44581606 93.96459961 288.45166016 C92.77793701 288.45998367 91.59127441 288.46830719 90.36865234 288.47688293 C87.13684403 288.49674809 83.90518514 288.5076052 80.67332411 288.51270938 C78.64577743 288.51637326 76.61825475 288.52262373 74.59071732 288.52971077 C67.49300316 288.55415248 60.39536149 288.56724498 53.29760742 288.57080078 C46.72134712 288.57442845 40.14555563 288.60428171 33.56943834 288.64620537 C27.89177118 288.68110919 22.21425786 288.69635269 16.53648436 288.69704682 C13.15944318 288.69783309 9.78325754 288.70870351 6.40626144 288.73504448 C-14.31406912 288.88378485 -31.72891815 287.77356189 -47.61889648 272.83276367 C-60.22181526 259.3253292 -65.64602027 244.24761534 -66.43212891 226.04052734 C-66.493284 224.640588 -66.493284 224.640588 -66.55567455 223.21236706 C-67.17294389 207.17622354 -67.07634209 191.11648585 -67.10717773 175.07104492 C-67.11123753 173.25538813 -67.11535475 171.43973147 -67.11952782 169.62407494 C-67.13846166 161.10838554 -67.15273256 152.59270432 -67.16113979 144.07699805 C-67.17095511 134.30435004 -67.19743525 124.53192587 -67.23764068 114.7593568 C-67.26784108 107.15455612 -67.2826112 99.54981975 -67.2859208 91.9449603 C-67.28826077 87.42266486 -67.29708847 82.90061198 -67.32238197 78.37838173 C-67.34574635 74.13534778 -67.34986266 69.89271516 -67.33962059 65.64963341 C-67.33912765 64.10132888 -67.345376 62.55300385 -67.35917664 61.00476074 C-67.509401 43.14329448 -61.41017321 30.4528816 -49.25952148 17.43432617 C-35.11644998 3.89210411 -18.98118696 -0.00885743 0 0 Z M-37.36889648 49.82495117 C-41.36310201 56.00348784 -43.46844182 60.96632375 -43.37683105 68.36703491 C-43.38307102 69.15494026 -43.38931098 69.9428456 -43.39574003 70.75462687 C-43.41159391 73.37392031 -43.39909606 75.99227324 -43.38647461 78.61157227 C-43.39189921 80.49798624 -43.39902377 82.38439598 -43.40771484 84.27079773 C-43.42591336 89.38044275 -43.41889429 94.48976384 -43.4061985 99.59941435 C-43.39604989 104.95590283 -43.40546963 110.31236415 -43.41174316 115.66885376 C-43.4190154 124.66527264 -43.40944427 133.66156007 -43.39038086 142.65795898 C-43.36862622 153.044027 -43.37565503 163.42978072 -43.39768648 173.81584108 C-43.41586833 182.74604834 -43.41838479 191.67616126 -43.4079318 200.60638106 C-43.40171049 205.93419709 -43.40082346 211.26186566 -43.41407776 216.58967209 C-43.42567569 221.60161525 -43.41753861 226.61315545 -43.39450073 231.62505531 C-43.3892341 233.45917023 -43.39069218 235.29331934 -43.39955139 237.12742043 C-43.45517441 249.81794073 -42.69699983 259.94928168 -33.57983398 269.52807617 C-25.69695612 276.97901552 -14.95997445 277.59281552 -4.63305664 277.56518555 C-2.86024574 277.57788986 -2.86024574 277.57788986 -1.05162048 277.59085083 C2.82971147 277.61412374 6.71064476 277.61524527 10.59204102 277.61401367 C12.61969811 277.61847425 14.64734562 277.62463833 16.67499793 277.63088083 C23.04256462 277.65004886 29.41000027 277.65302284 35.77758789 277.64624023 C42.31589268 277.6396032 48.85363282 277.66246478 55.39182317 277.69955397 C61.03381195 277.73038132 66.67562028 277.74159702 72.31769145 277.73771715 C75.67502933 277.73566309 79.03157893 277.74319923 82.38889694 277.76560974 C86.13853789 277.78788703 89.88683599 277.77805091 93.63647461 277.76049805 C94.72776169 277.77376129 95.81904877 277.78702454 96.94340515 277.8006897 C107.43917226 277.68724068 116.82482574 274.34933112 124.51000977 267.04760742 C129.32412651 261.39827043 131.26063791 255.20895534 131.23754883 247.87963867 C131.23685143 247.21363144 131.23615402 246.54762421 131.23543549 245.86143494 C131.23163741 243.53933909 131.22038469 241.21733519 131.20922852 238.89526367 C131.20437558 237.16194768 131.19993882 235.42863049 131.19586182 233.6953125 C131.18529347 229.6084661 131.17128369 225.52164492 131.15576172 221.43481445 C131.13674344 216.19620919 131.12356846 210.95762322 131.11425781 205.71899414 C131.11294373 204.98207242 131.11162965 204.2451507 131.11027575 203.48589802 C131.10756116 201.95610937 131.10484911 200.42632072 131.10213947 198.89653206 C131.07335107 182.94454228 131.01987725 166.99275834 130.9471817 151.04090881 C130.90709697 142.1430718 130.87478171 133.24533049 130.86010742 124.34741211 C130.84709442 116.46558578 130.82020404 108.58395142 130.77649045 100.70223331 C130.75399651 96.56432125 130.73818616 92.42664444 130.73921967 88.28866577 C130.73996546 84.42695807 130.72204844 80.56578217 130.68993568 76.70421219 C130.68145332 75.29496309 130.67967546 73.88565424 130.68530083 72.47639084 C130.72247586 61.73251067 129.09130653 54.76115171 121.76000977 46.67651367 C113.67341868 39.0747302 103.56914683 37.6965826 92.9387207 37.70947266 C91.13708717 37.6943589 91.13708717 37.6943589 89.29905701 37.67893982 C86.02394627 37.65542102 82.74917912 37.6454129 79.47399426 37.64349246 C77.42150404 37.64135067 75.36907253 37.63492836 73.31659698 37.62700081 C66.13802837 37.59929628 58.95962616 37.58698885 51.78100586 37.58935547 C45.11883198 37.59115551 38.45738862 37.55953272 31.79539943 37.51212448 C26.05153928 37.47272546 20.30791619 37.45681097 14.56392217 37.4587217 C11.14396361 37.45948177 7.72465483 37.45120421 4.30483246 37.41918755 C0.48296958 37.38961236 -3.33703932 37.39848729 -7.15893555 37.41650391 C-8.27206619 37.39964539 -9.38519684 37.38278687 -10.53205872 37.36541748 C-21.32697832 37.49396578 -30.41045424 41.45307535 -37.36889648 49.82495117 Z " fill="#FDCC18" transform="translate(706.868896484375,229.854736328125)"/>
<path d="M0 0 C1.65393265 -0.00835373 1.65393265 -0.00835373 3.34127808 -0.01687622 C4.55318817 -0.00766144 5.76509827 0.00155334 7.01373291 0.01104736 C8.29132477 0.00900299 9.56891663 0.00695862 10.88522339 0.00485229 C14.40939972 -0.00030249 17.93328584 0.01332807 21.45741558 0.0303793 C25.20064721 0.04552571 28.94387665 0.04424521 32.68713379 0.04504395 C39.02944773 0.04874937 45.37165443 0.06372369 51.71392822 0.08624268 C58.10781877 0.10890954 64.50163867 0.12338503 70.89556885 0.1272583 C72.05539394 0.12797136 72.05539394 0.12797136 73.23864985 0.12869883 C74.79588636 0.12963463 76.35312287 0.13056749 77.91035938 0.13149738 C95.3967243 0.14365272 112.88230899 0.21968817 130.36825562 0.33895874 C133.2389953 0.35835491 136.10973551 0.37572146 138.98049927 0.3911438 C146.95309839 0.4341796 154.9249824 0.49644317 162.89716339 0.59311676 C165.29205263 0.61954112 167.68702385 0.639435 170.08202362 0.65242767 C173.33780564 0.67179936 176.59230036 0.71584578 179.84771729 0.76690674 C181.27213764 0.76756763 181.27213764 0.76756763 182.72533417 0.76824188 C189.04053516 0.90595483 189.04053516 0.90595483 192.30981445 3.21362305 C193.69439697 5.36749268 193.69439697 5.36749268 193.69439697 8.42999268 C192.48875652 11.97156152 191.99145001 12.64636184 188.69439697 14.36749268 C185.369276 14.80495261 182.0668248 14.73828687 178.71783447 14.69561768 C177.67994278 14.69410706 176.64205109 14.69259644 175.57270813 14.69104004 C172.07136793 14.68151062 168.57059712 14.64967223 165.06939697 14.61749268 C162.59682666 14.60544896 160.1242513 14.59440719 157.65167236 14.58428955 C148.99893678 14.54050235 140.34676316 14.45723644 131.69439697 14.36749268 C130.84183571 14.35874115 129.98927444 14.34998962 129.11087799 14.3409729 C102.63804452 14.06831426 76.16606215 13.73568292 49.69439697 13.36749268 C49.70212757 14.40685077 49.70212757 14.40685077 49.71001434 15.467206 C49.8376939 32.65396359 49.96286974 49.84073764 50.0855484 67.02753162 C50.14493987 75.34032366 50.20506771 83.65310894 50.26715088 91.96588135 C50.57887437 133.76736111 50.77323898 175.56470381 50.69439697 217.36749268 C56.63439697 217.36749268 62.57439697 217.36749268 68.69439697 217.36749268 C69.02439697 215.71749268 69.35439697 214.06749268 69.69439697 212.36749268 C76.11790891 198.18136532 86.49436363 187.88865438 101.18658447 182.21124268 C114.08562941 179.10857708 127.40158058 180.65163365 138.88189697 187.17999268 C150.54060714 194.63063714 156.80818642 203.46550638 161.69439697 216.36749268 C162.52688965 216.3820752 163.35938232 216.39665771 164.21710205 216.41168213 C167.3092935 216.47277898 170.40081779 216.54693823 173.49249268 216.62994385 C175.48730327 216.67950586 177.48246955 216.71400401 179.4776001 216.74835205 C180.73121338 216.78380127 181.98482666 216.81925049 183.27642822 216.85577393 C184.43376465 216.88195801 185.59110107 216.90814209 186.7835083 216.93511963 C189.69439697 217.36749268 189.69439697 217.36749268 191.57208252 218.7119751 C193.33261478 221.30892295 193.07503432 223.32239392 192.69439697 226.36749268 C190.84096922 228.92698814 189.75683304 229.34668065 186.69439697 230.36749268 C184.84829165 230.44988436 182.99934534 230.47492627 181.15142822 230.46514893 C180.07828369 230.46192627 179.00513916 230.45870361 177.8994751 230.4553833 C176.77992432 230.44700439 175.66037354 230.43862549 174.50689697 230.42999268 C173.37574463 230.42548096 172.24459229 230.42096924 171.0791626 230.4163208 C168.28418771 230.40452766 165.48931877 230.38806918 162.69439697 230.36749268 C162.64106201 230.95482178 162.58772705 231.54215088 162.53277588 232.14727783 C161.13892961 246.18057953 155.03927966 258.56713652 144.07720947 267.65264893 C132.66535832 275.86544017 120.31638398 278.79317654 106.46392822 276.93389893 C95.28425805 274.78344863 84.79312364 269.46842431 77.69439697 260.36749268 C75.514761 257.12386379 73.56314144 253.79825759 71.69439697 250.36749268 C71.09627197 249.27436768 70.49814697 248.18124268 69.88189697 247.05499268 C68.01671303 242.83378691 67.65426221 239.26938305 67.67486572 234.69952393 C67.67768555 233.88846191 67.68050537 233.0773999 67.68341064 232.24176025 C67.68703613 231.62325195 67.69066162 231.00474365 67.69439697 230.36749268 C66.44827637 230.38843994 65.20215576 230.40938721 63.91827393 230.43096924 C59.2872063 230.50346618 54.65618867 230.54932781 50.02471924 230.58721924 C48.02170369 230.60731259 46.01874665 230.63459233 44.01593018 230.66925049 C41.13386589 230.71786879 38.25257831 230.74048419 35.37017822 230.75811768 C34.47728592 230.77876282 33.58439362 230.79940796 32.66444397 230.82067871 C28.48545934 230.82218089 26.2678207 230.71648165 22.62481689 228.49932861 C20.69439697 226.36749268 20.69439697 226.36749268 20.13189697 223.86749268 C20.88570111 220.51725205 21.97696173 219.45715209 24.69439697 217.36749268 C29.41388518 216.83361392 33.92914184 217.19100175 38.69439697 217.36749268 C38.69439697 212.74749268 38.69439697 208.12749268 38.69439697 203.36749268 C36.90300293 203.39367676 35.11160889 203.41986084 33.26593018 203.44683838 C27.33886595 203.52755152 21.41182069 203.58495559 15.48437214 203.62655354 C11.89138838 203.65261812 8.29900062 203.68795596 4.70635986 203.74468994 C1.23741512 203.79912603 -2.23095741 203.82893683 -5.7002964 203.84187889 C-7.66411354 203.85557716 -9.62770127 203.89459286 -11.59117126 203.93397522 C-21.52701387 203.9370999 -21.52701387 203.9370999 -24.65643311 201.0010376 C-26.30560303 198.36749268 -26.30560303 198.36749268 -26.30560303 195.74249268 C-25.21956773 193.16315884 -24.52454136 192.05166498 -22.30560303 190.36749268 C-19.62904358 190.00672913 -19.62904358 190.00672913 -16.36541748 190.0269165 C-15.1443782 190.0271431 -13.92333893 190.02736969 -12.66529846 190.02760315 C-10.68707344 190.05082893 -10.68707344 190.05082893 -8.66888428 190.07452393 C-7.30554165 190.08012025 -5.94219298 190.08439018 -4.57884216 190.08738708 C-0.9931671 190.09883318 2.59214252 190.12829782 6.17767334 190.16149902 C9.83749447 190.19220528 13.49737474 190.20589358 17.1572876 190.2210083 C24.33649053 190.25316819 31.51539252 190.30436115 38.69439697 190.36749268 C38.57643772 185.68591367 38.45221149 181.0045598 38.32208252 176.32330322 C38.27867552 174.72959967 38.23700479 173.13584787 38.19708252 171.54205322 C38.1395189 169.2558536 38.07578548 166.96989818 38.01080322 164.68389893 C37.99409073 163.96722549 37.97737823 163.25055206 37.9601593 162.51216125 C38.14421043 159.15221886 38.14421043 159.15221886 36.69439697 156.36749268 C36.59789261 154.50721233 36.57252405 152.64322238 36.57414246 150.78044128 C36.57276779 149.56742844 36.57139313 148.35441559 36.56997681 147.10464478 C36.57351641 145.7481687 36.57715123 144.39169287 36.58087158 143.03521729 C36.58115345 141.61636863 36.58099573 140.19751983 36.58042908 138.77867126 C36.58014108 134.91520467 36.58603807 131.05176885 36.59300303 127.18830943 C36.59923631 123.15506695 36.59984035 119.12182383 36.60102844 115.08857727 C36.60414184 107.44583799 36.61235533 99.80311295 36.62237793 92.16037995 C36.63353882 83.46161249 36.63904946 74.76284437 36.64407337 66.06407154 C36.65453794 48.16520383 36.67213754 30.2663494 36.69439697 12.36749268 C35.47333252 12.38843994 34.25226807 12.40938721 32.99420166 12.43096924 C28.46193173 12.50339426 23.9297129 12.54930156 19.39703369 12.58721924 C17.43568316 12.607329 15.47439253 12.63462086 13.51324463 12.66925049 C10.69327003 12.71779689 7.87408833 12.74046754 5.05377197 12.75811768 C3.73950226 12.78908539 3.73950226 12.78908539 2.39868164 12.82067871 C-3.68079594 12.82291716 -3.68079594 12.82291716 -6.86322021 10.50323486 C-8.65649778 7.84792137 -8.86968365 6.51022758 -8.30560303 3.36749268 C-5.90238135 0.09275172 -3.94035646 -0.00603081 0 0 Z " fill="#08131A" transform="translate(429.30560302734375,285.63250732421875)"/>
<path d="M0 0 C1.00566513 -0.00302124 2.01133026 -0.00604248 3.04747009 -0.00915527 C4.16948318 -0.00202515 5.29149628 0.00510498 6.44750977 0.01245117 C7.66084488 0.01241089 8.87417999 0.01237061 10.12428284 0.0123291 C13.56342003 0.01520429 17.00226647 0.02768315 20.44134521 0.04507828 C22.64058344 0.05542777 24.83980855 0.06262387 27.0390625 0.06869507 C36.52828274 0.09494746 46.01732185 0.14041333 55.50642967 0.1929884 C63.19005983 0.23460262 70.87370131 0.26586906 78.55739152 0.29408586 C91.84847438 0.34297075 105.13942576 0.40516838 118.43036938 0.4834547 C119.84991128 0.49178347 121.26945327 0.50009602 122.68899536 0.50839233 C123.39108834 0.5124962 124.09318132 0.51660008 124.81654984 0.52082831 C129.78970206 0.54917676 134.76285492 0.57028132 139.73605347 0.58853149 C146.52913737 0.61364634 153.32197569 0.65468356 160.11491203 0.70591736 C162.65483703 0.72265629 165.19480129 0.73428524 167.73477364 0.74058533 C171.23953011 0.75015922 174.74368251 0.77807735 178.24829102 0.81054688 C179.27637595 0.80911084 180.30446089 0.80767481 181.36369991 0.80619526 C186.90555285 0.87931904 192.01032216 1.05182607 196.20141602 5.24291992 C196.57641602 8.05541992 196.57641602 8.05541992 196.20141602 11.24291992 C193.49956132 14.04577559 191.85559711 15.15094193 187.97167969 15.69702148 C186.78292236 15.67607422 185.59416504 15.65512695 184.36938477 15.63354492 C182.43095703 15.61420898 182.43095703 15.61420898 180.45336914 15.59448242 C179.09854056 15.56106627 177.74372285 15.52720655 176.38891602 15.49291992 C175.01459285 15.47284026 173.64024162 15.45459205 172.26586914 15.43823242 C168.91033745 15.39113724 165.55623475 15.32537128 162.20141602 15.24291992 C162.21394409 15.83631165 162.22647217 16.42970337 162.23937988 17.04107666 C162.86567487 46.98607205 163.30258781 76.91661845 163.26391602 106.86791992 C163.26306 107.5357399 163.26220398 108.20355988 163.26132202 108.89161682 C163.25012674 117.00874624 163.23035358 125.12583486 163.20141602 133.24291992 C164.02125977 133.19651367 164.84110352 133.15010742 165.68579102 133.10229492 C166.76344727 133.06620117 167.84110352 133.03010742 168.95141602 132.99291992 C170.01875977 132.94651367 171.08610352 132.90010742 172.18579102 132.85229492 C175.20141602 133.24291992 175.20141602 133.24291992 177.55688477 135.10229492 C179.20141602 137.24291992 179.20141602 137.24291992 179.76391602 139.74291992 C179.20141602 142.24291992 179.20141602 142.24291992 177.33935547 144.37475586 C172.74214236 147.11169468 168.68398963 146.74173074 163.43188477 146.63354492 C162.39574539 146.62788513 161.35960602 146.62222534 160.29206848 146.61639404 C156.99054294 146.59404659 153.69011221 146.5438517 150.38891602 146.49291992 C148.14739526 146.47285288 145.90585745 146.45460247 143.66430664 146.43823242 C138.17630441 146.39418725 132.68893844 146.3272911 127.20141602 146.24291992 C127.13765778 146.93257339 127.07389954 147.62222687 127.00820923 148.33277893 C126.92195282 149.23584274 126.83569641 150.13890656 126.74682617 151.06933594 C126.66244293 151.96523941 126.57805969 152.86114288 126.49111938 153.78419495 C125.14623644 165.19827444 117.22404047 176.3761672 108.58032227 183.52807617 C97.03052586 191.85379148 84.06559278 194.58242375 70.02172852 192.99682617 C57.4837203 190.47361705 46.44773138 182.25884041 38.88891602 172.18041992 C34.31561682 164.81884144 30.99118911 154.89385003 31.20141602 146.24291992 C30.2582251 146.269104 29.31503418 146.29528809 28.34326172 146.32226562 C24.83008457 146.40768914 21.31801694 146.4702629 17.80419922 146.51757812 C16.286118 146.54266101 14.76815684 146.57673652 13.25048828 146.62011719 C11.06325636 146.68105285 8.87762562 146.70918887 6.68969727 146.73120117 C5.37525635 146.75738525 4.06081543 146.78356934 2.70654297 146.81054688 C-1.66580161 146.10248104 -3.10045813 144.68034564 -5.79858398 141.24291992 C-6.36108398 138.61791992 -6.36108398 138.61791992 -5.79858398 136.24291992 C-2.89681069 133.20870625 -0.27153445 132.87013112 3.83843994 132.75056458 C4.92303497 132.74097969 4.92303497 132.74097969 6.02954102 132.73120117 C6.77854675 132.71324997 7.52755249 132.69529877 8.29925537 132.67680359 C10.68325226 132.62277449 13.06704982 132.58882989 15.45141602 132.55541992 C17.07123537 132.52224017 18.69102846 132.48774989 20.31079102 132.4519043 C24.27418867 132.36705277 28.23752799 132.30020703 32.20141602 132.24291992 C32.65379639 131.3004541 33.10617676 130.35798828 33.57226562 129.38696289 C34.18657358 128.12783695 34.80125851 126.86889488 35.41625977 125.61010742 C35.71189819 124.99159912 36.00753662 124.37309082 36.31213379 123.73583984 C42.07902093 112.00147818 51.39941344 104.51025664 63.20141602 99.24291992 C74.72994452 95.36657967 88.16899073 95.65946485 99.24047852 100.63745117 C111.6658218 107.37467557 121.09968073 116.87539237 126.20141602 130.24291992 C126.20141602 131.23291992 126.20141602 132.22291992 126.20141602 133.24291992 C134.12141602 133.24291992 142.04141602 133.24291992 150.20141602 133.24291992 C150.12922852 129.59616211 150.05704102 125.9494043 149.98266602 122.19213867 C149.88579635 117.10495525 149.79262463 112.01770776 149.70141602 106.93041992 C149.68953876 106.26828995 149.67766151 105.60615997 149.66542435 104.92396545 C149.12777071 74.69536029 149.09061608 44.47597587 149.20141602 14.24291992 C147.61268929 14.24625084 147.61268929 14.24625084 145.99186707 14.24964905 C56.02747873 14.43222598 56.02747873 14.43222598 22.75283813 14.03439331 C20.26850912 14.00683629 17.78409528 13.9860589 15.2996521 13.97219849 C11.91868226 13.9514408 8.53903365 13.90584274 5.15844727 13.85229492 C4.19008942 13.85106125 3.22173157 13.84982758 2.22402954 13.84855652 C-4.12735747 13.70592083 -4.12735747 13.70592083 -7.42480469 11.43139648 C-8.79858398 9.24291992 -8.79858398 9.24291992 -8.73608398 5.61791992 C-7.30893602 0.48018725 -4.8955654 -0.00808495 0 0 Z " fill="#09141A" transform="translate(889.798583984375,369.757080078125)"/>
<path d="M0 0 C4.49115836 2.69469502 8.15984127 6.75718253 10.5 11.4375 C11.02839495 17.65630209 11.22493456 23.17121321 7.5 28.4375 C3.29551191 32.31856593 0.25714371 34.4375 -5.5 34.4375 C-1.74943014 39.00850701 3.2943265 41.09352594 8.5 43.625 C9.47026123 44.10404785 10.44052246 44.5830957 11.44018555 45.07666016 C18.78727221 48.67598748 26.21014094 52.0939702 33.71289062 55.35620117 C50.58175022 62.74971806 50.58175022 62.74971806 54.5 68.4375 C55.51670329 74.32055982 54.93972553 79.45582854 51.5 84.4375 C46.55150454 89.0148583 42.72831913 89.58432989 36.20703125 89.53515625 C35.14798836 89.53303383 35.14798836 89.53303383 34.06755066 89.53086853 C31.81582374 89.52527764 29.56419679 89.51272688 27.3125 89.5 C25.78450665 89.49498382 24.25651173 89.49042112 22.72851562 89.48632812 C18.98563865 89.4753112 15.24283627 89.45805287 11.5 89.4375 C12.22509766 90.82388672 12.22509766 90.82388672 12.96484375 92.23828125 C14.86521615 96.19859931 15.14418934 98.07132778 14.5 102.4375 C10.91228723 110.06643729 6.25178171 117.17899582 1.6875 124.25 C0.45047969 126.17445272 -0.78649948 128.09893188 -2.0234375 130.0234375 C-2.61866211 130.94737305 -3.21388672 131.87130859 -3.82714844 132.82324219 C-5.29235734 135.11300531 -6.73522869 137.41400553 -8.1640625 139.7265625 C-12.54570955 146.78887547 -16.73408077 153.42744575 -23.875 157.9375 C-33.3187709 159.7363135 -40.68315197 155.40423055 -48.296875 150.30859375 C-49.95149406 149.16924037 -51.60250265 148.02462727 -53.25 146.875 C-54.08660156 146.29814453 -54.92320312 145.72128906 -55.78515625 145.12695312 C-58.03115115 143.57410019 -60.27348575 142.01815716 -62.5 140.4375 C-63.23750488 139.93806885 -63.97500977 139.4386377 -64.73486328 138.92407227 C-66.5 137.4375 -66.5 137.4375 -67.0078125 134.65625 C-66.37936889 130.67288432 -64.69617885 128.12170395 -62.375 124.9375 C-61.46076156 123.62823901 -60.54948987 122.31690318 -59.640625 121.00390625 C-58.89135742 119.92713623 -58.89135742 119.92713623 -58.12695312 118.82861328 C-55.01244089 114.25125242 -52.08074996 109.5557781 -49.125 104.875 C-42.07516025 93.72979387 -42.07516025 93.72979387 -38.5 88.4375 C-39.27601563 88.4689209 -40.05203125 88.5003418 -40.8515625 88.53271484 C-44.40073973 88.65818546 -47.94944934 88.73571157 -51.5 88.8125 C-52.72074219 88.86277344 -53.94148437 88.91304688 -55.19921875 88.96484375 C-62.14530801 89.07748304 -66.67088166 88.72479223 -72.046875 84.12744141 C-74.70036805 81.04150745 -75.8274401 78.1729676 -76 74.125 C-76.0515625 73.40699219 -76.103125 72.68898438 -76.15625 71.94921875 C-74.93656725 67.28102824 -71.434139 63.7442964 -67.48666382 61.07719421 C-65.20976898 59.82313812 -62.90705349 58.67673197 -60.55859375 57.5625 C-59.2906472 56.94121216 -59.2906472 56.94121216 -57.99708557 56.30737305 C-56.22174989 55.44250034 -54.44243749 54.58574742 -52.65942383 53.73681641 C-49.93120698 52.43449602 -47.22037511 51.10023688 -44.50976562 49.76171875 C-42.77698115 48.9225365 -41.0432868 48.08522986 -39.30859375 47.25 C-38.50014511 46.85119629 -37.69169647 46.45239258 -36.85874939 46.04150391 C-31.22458422 43.39214941 -31.22458422 43.39214941 -27.56665039 43.62109375 C-25.14445519 44.57795385 -23.91819147 45.23142438 -22.5 47.4375 C-22.48779297 49.80639648 -22.48779297 49.80639648 -23.5 52.4375 C-25.88177637 53.98743838 -28.00383842 55.13392058 -30.5703125 56.28515625 C-31.28476532 56.62373154 -31.99921814 56.96230682 -32.73532104 57.31114197 C-35.02413958 58.39159982 -37.32374008 59.44633864 -39.625 60.5 C-41.90205627 61.56248141 -44.17662162 62.63011248 -46.45040894 63.6995697 C-47.86489222 64.36266375 -49.28170049 65.02082955 -50.70120239 65.67311096 C-55.11227976 67.71365097 -59.30909564 69.97472298 -63.5 72.4375 C-63.5 73.4275 -63.5 74.4175 -63.5 75.4375 C-60.5003383 76.93733085 -57.38053039 76.67652055 -54.0859375 76.75390625 C-53.35629791 76.77468735 -52.62665833 76.79546844 -51.87490845 76.81687927 C-49.54170237 76.88231917 -47.20838279 76.94123368 -44.875 77 C-43.29425905 77.04319053 -41.71352961 77.08680499 -40.1328125 77.13085938 C-36.25532496 77.23799481 -32.37772315 77.33927782 -28.5 77.4375 C-28.20738281 76.83421875 -27.91476562 76.2309375 -27.61328125 75.609375 C-26.18613102 72.82518016 -24.68533175 70.6852698 -22.5 68.4375 C-19.08893046 67.85471156 -17.73949782 68.2834782 -14.80615234 70.16992188 C-13.274021 71.2769043 -13.274021 71.2769043 -11.7109375 72.40625 C-1.76831152 78.72584398 9.54437679 77.29969724 20.875 76.9375 C23.0754555 76.89729126 25.27598229 76.86080365 27.4765625 76.828125 C32.81928753 76.74078948 38.15930268 76.60761231 43.5 76.4375 C43.5 75.1175 43.5 73.7975 43.5 72.4375 C42.68317749 72.18552856 42.68317749 72.18552856 41.84985352 71.9284668 C36.14839687 70.1076338 30.81735255 67.86178159 25.4375 65.25 C24.61967041 64.85707764 23.80184082 64.46415527 22.95922852 64.05932617 C20.46933101 62.85909385 17.98411343 61.64965166 15.5 60.4375 C14.75105469 60.07398438 14.00210938 59.71046875 13.23046875 59.3359375 C-12.90904018 46.61941964 -12.90904018 46.61941964 -17.5 37.4375 C-17.64716542 35.62906337 -17.7210887 33.81418434 -17.75 32 C-17.77578125 31.03191406 -17.8015625 30.06382812 -17.828125 29.06640625 C-17.5 26.4375 -17.5 26.4375 -16.33203125 24.62890625 C-13.84514065 23.01163198 -11.88422099 22.96160173 -8.9375 22.8125 C-5.07244668 22.68163262 -5.07244668 22.68163262 -1.5 21.4375 C-1.20751264 18.51262643 -0.9943863 16.2863342 -1.5 13.4375 C-4.71305521 10.14205876 -7.57880784 9.16741471 -12.0625 8.875 C-15.73104839 9.02940018 -16.41728506 9.37062409 -19.4375 11.8125 C-20.118125 12.67875 -20.79875 13.545 -21.5 14.4375 C-22.16 15.0975 -22.82 15.7575 -23.5 16.4375 C-26.79714793 16.10778521 -28.1226839 15.8148161 -30.5 13.4375 C-31.21490063 9.76086819 -30.55377525 8.5173481 -28.4375 5.375 C-21.01414592 -2.56101666 -10.13611789 -4.51145132 0 0 Z " fill="#081319" transform="translate(762.5,291.5625)"/>
<path d="M0 0 C9.48125903 6.58731656 16.64399678 16.61265112 19 28 C20.35448538 38.11577687 16.97482838 46.73663406 11.58203125 55.234375 C4.75903892 63.87300954 -5.8577377 68.92642764 -16.63671875 70.34765625 C-27.54151943 70.74139317 -38.05165154 66.49340785 -46.04296875 59.11328125 C-53.12272273 51.4297103 -57.66140077 41.81321743 -57.30859375 31.1875 C-55.81071929 20.56965574 -49.87590701 9.78489291 -41.5625 3.0625 C-28.42257385 -6.28792526 -14.50272116 -8.23970959 0 0 Z " fill="#FCFCFC" transform="translate(988,483)"/>
<path d="M0 0 C8.06833239 6.63396219 13.50819366 14.39958099 16.8125 24.3125 C17.71591234 36.39749136 16.70422849 46.13331898 8.625 55.625 C0.13238636 64.36739639 -8.77830727 69.20389593 -21.0625 69.8125 C-31.44969929 69.50581761 -40.87239909 64.55503046 -48.1875 57.3125 C-50.52629091 54.46594528 -52.42244997 51.54276785 -54.1875 48.3125 C-54.5278125 47.71050781 -54.868125 47.10851562 -55.21875 46.48828125 C-58.60962845 39.25126752 -58.27409136 30.072805 -56.53125 22.4375 C-52.45218423 11.18490478 -43.53775138 1.83505405 -33 -3.625 C-21.43898602 -8.45408191 -10.6446972 -5.63542793 0 0 Z " fill="#FCFCFC" transform="translate(564.1875,483.6875)"/>
<path d="M0 0 C2.19170651 -0.0192255 4.37950306 -0.08114436 6.5703125 -0.14453125 C15.24370848 -0.27690557 21.9048232 0.60811929 28.7265625 6.48046875 C30.98046875 8.9296875 30.98046875 8.9296875 32.2890625 11.16796875 C32.74410156 11.91433594 33.19914063 12.66070313 33.66796875 13.4296875 C35.39171984 16.76905769 35.86234104 19.45946582 35.91943359 23.16040039 C35.93549652 24.10891373 35.95155945 25.05742706 35.96810913 26.03468323 C36.01280038 30.38729004 36.05365752 34.73974614 36.07666016 39.0925293 C36.09317202 41.38039353 36.12039831 43.66820721 36.15869141 45.95581055 C36.21380545 49.26768555 36.23539133 52.57835146 36.25 55.890625 C36.27266937 56.90141617 36.29533875 57.91220734 36.31869507 58.95362854 C36.29559038 66.82191882 34.38390581 73.48598467 28.97079468 79.39808655 C23.29073343 84.72964067 17.27402034 86.86281718 9.55078125 86.84375 C8.89954788 86.8442485 8.24831451 86.84474701 7.5773468 86.84526062 C6.21518873 86.84293917 4.85302477 86.83332601 3.4909668 86.81665039 C1.4017954 86.79282888 -0.68611581 86.79613126 -2.77539062 86.80273438 C-13.00631158 86.74759467 -13.00631158 86.74759467 -15.2734375 84.48046875 C-15.4718335 81.8712347 -15.54619726 79.36814348 -15.53222656 76.7578125 C-15.53748352 75.56250412 -15.53748352 75.56250412 -15.54284668 74.3430481 C-15.55167028 71.70126713 -15.54581268 69.05975258 -15.5390625 66.41796875 C-15.54040897 64.58715768 -15.54234935 62.75634695 -15.54486084 60.92553711 C-15.54781295 57.08541465 -15.54351167 53.24538512 -15.53417969 49.40527344 C-15.5227851 44.47528181 -15.5293441 39.54550792 -15.54132462 34.61552429 C-15.54854087 30.83408966 -15.54625637 27.05270692 -15.54106903 23.27127075 C-15.53973188 21.45313491 -15.54138252 19.63499441 -15.54602814 17.81686401 C-15.55108954 15.27882349 -15.54338873 12.74113891 -15.53222656 10.203125 C-15.53627502 9.44669708 -15.54032349 8.69026917 -15.54449463 7.91091919 C-15.46288712 -2.07099109 -7.92425253 0.04200134 0 0 Z " fill="#F9FAFA" transform="translate(756.2734375,608.51953125)"/>
<path d="M0 0 C0.68223633 0.00016113 1.36447266 0.00032227 2.06738281 0.00048828 C4.11351103 -0.0038325 6.15738647 -0.03998411 8.203125 -0.078125 C16.68311418 -0.10311514 24.88295106 0.20618582 31.55078125 6.03369141 C38.31663547 13.02980847 39.11532271 21.27508768 39.1171875 30.5546875 C39.12860779 32.13709984 39.12860779 32.13709984 39.14025879 33.7514801 C39.15101845 35.97272384 39.15392981 38.194018 39.14941406 40.4152832 C39.14844133 43.79529884 39.19012215 47.17304552 39.234375 50.55273438 C39.23958255 52.72004739 39.24227018 54.88736823 39.2421875 57.0546875 C39.25858276 58.05495468 39.27497803 59.05522186 39.29187012 60.08580017 C39.21671619 67.79481134 37.19123643 73.464391 31.97172546 79.22003174 C23.91947528 87.03057463 13.82437049 86.82029433 3.2109375 86.68359375 C1.2937793 86.68842773 1.2937793 86.68842773 -0.66210938 86.69335938 C-10.08422175 86.6384345 -10.08422175 86.6384345 -12.3515625 84.37109375 C-12.5499585 81.7618597 -12.62432226 79.25876848 -12.61035156 76.6484375 C-12.61560852 75.45312912 -12.61560852 75.45312912 -12.62097168 74.2336731 C-12.62979528 71.59189213 -12.62393768 68.95037758 -12.6171875 66.30859375 C-12.61853397 64.47778268 -12.62047435 62.64697195 -12.62298584 60.81616211 C-12.62593795 56.97603965 -12.62163667 53.13601012 -12.61230469 49.29589844 C-12.6009101 44.36590681 -12.6074691 39.43613292 -12.61944962 34.50614929 C-12.62666587 30.72471466 -12.62438137 26.94333192 -12.61919403 23.16189575 C-12.61785688 21.34375991 -12.61950752 19.52561941 -12.62415314 17.70748901 C-12.62921454 15.16944849 -12.62151373 12.63176391 -12.61035156 10.09375 C-12.61440002 9.33732208 -12.61844849 8.58089417 -12.62261963 7.80154419 C-12.54861219 -1.25075521 -7.70419993 0.06865129 0 0 Z " fill="#FCFCFC" transform="translate(371.3515625,608.62890625)"/>
<path d="M0 0 C5.63076467 4.07235101 9.17586105 8.6704058 10.93359375 15.3984375 C11.25687724 19.21772125 11.2852941 23.02785918 11.3046875 26.859375 C11.31823021 28.51617783 11.31823021 28.51617783 11.33204651 30.20645142 C11.34652362 32.53799744 11.35542942 34.86958385 11.35913086 37.20117188 C11.37103069 40.75460658 11.42024738 44.30630614 11.47070312 47.859375 C11.48016782 50.1301999 11.48740263 52.40103542 11.4921875 54.671875 C11.51171982 55.72732513 11.53125214 56.78277527 11.55137634 57.87020874 C11.50309193 65.8233357 9.43618934 70.54785185 4.125 76.38671875 C3.58746094 76.82371094 3.04992187 77.26070312 2.49609375 77.7109375 C1.96113281 78.16082031 1.42617188 78.61070312 0.875 79.07421875 C-6.29243606 83.96307353 -12.57901652 84.28112603 -21.06640625 83.3984375 C-24.09791266 82.47908486 -26.48670429 81.21866516 -29.06640625 79.3984375 C-29.97390625 78.7796875 -30.88140625 78.1609375 -31.81640625 77.5234375 C-36.25173515 73.33451576 -39.63785327 68.10928072 -40.34729004 61.96626282 C-40.36094604 61.11928329 -40.37460205 60.27230377 -40.38867188 59.3996582 C-40.40788696 58.43127518 -40.42710205 57.46289215 -40.44689941 56.46516418 C-40.45539917 55.42865219 -40.46389893 54.3921402 -40.47265625 53.32421875 C-40.4840564 52.24520798 -40.49545654 51.1661972 -40.50720215 50.05448914 C-40.52607194 47.77244977 -40.53915813 45.49035628 -40.546875 43.20825195 C-40.56624359 39.74006401 -40.6282912 36.27427033 -40.69140625 32.80664062 C-40.70447236 30.58334733 -40.71497093 28.36003716 -40.72265625 26.13671875 C-40.74734985 25.11032791 -40.77204346 24.08393707 -40.79748535 23.02644348 C-40.75157215 15.49833444 -38.77393916 10.30344039 -34.06640625 4.3984375 C-25.06471021 -3.90422531 -11.09001008 -5.91187683 0 0 Z " fill="#FBFCFC" transform="translate(591.06640625,611.6015625)"/>
<path d="M0 0 C6.7429675 3.71068791 10.49440997 9.21147618 13.875 15.97265625 C13.99014537 17.52244941 14.04446121 19.07697094 14.06787109 20.63085938 C14.08393402 21.59946899 14.09999695 22.56807861 14.11654663 23.56604004 C14.1611319 28.02286063 14.20211066 32.47953143 14.22509766 36.93652344 C14.24159907 39.27972384 14.26881124 41.62287512 14.30712891 43.96582031 C14.36223716 47.35377993 14.38382985 50.74055713 14.3984375 54.12890625 C14.42110687 55.16470825 14.44377625 56.20051025 14.46713257 57.2677002 C14.44430436 65.22805087 12.5643323 71.84610439 7.16537476 77.8848877 C1.58752367 83.19267661 -4.4067043 85.10320012 -12 85.47265625 C-19.10153938 85.26642468 -24.65588215 83.06039117 -29.97265625 78.328125 C-36.61928789 71.09358491 -37.58563187 64.14211563 -37.55859375 54.6328125 C-37.5638356 53.55188828 -37.56907745 52.47096405 -37.57447815 51.35728455 C-37.58088137 49.07877458 -37.57958347 46.80023148 -37.57104492 44.52172852 C-37.56253562 41.04968998 -37.59132115 37.57929815 -37.62304688 34.10742188 C-37.62465918 31.88671924 -37.6240808 29.66601371 -37.62109375 27.4453125 C-37.63232773 26.4148732 -37.64356171 25.3844339 -37.65513611 24.32276917 C-37.58339438 16.8446468 -36.13968543 11.41287381 -31.16015625 5.73046875 C-30.50917969 5.19164062 -29.85820312 4.6528125 -29.1875 4.09765625 C-28.53910156 3.54335938 -27.89070313 2.9890625 -27.22265625 2.41796875 C-19.76540359 -2.72017554 -8.47475117 -2.78607445 0 0 Z " fill="#FBFCFC" transform="translate(492.125,610.02734375)"/>
<path d="M0 0 C2.12987057 -0.01178851 4.25673737 -0.0608464 6.38598633 -0.11157227 C15.5009541 -0.22088758 22.17949567 0.74940392 28.93066406 7.16674805 C34.91288498 13.50008492 36.62371965 19.90740074 36.38793945 28.49194336 C35.63466125 36.13669921 32.18353546 42.6346556 26.47387695 47.80053711 C24.09887695 49.42553711 24.09887695 49.42553711 22.09887695 49.42553711 C23.84767459 53.0927784 25.59813446 56.75922395 27.34887695 60.42553711 C28.08557617 61.97047852 28.08557617 61.97047852 28.8371582 63.54663086 C29.32055664 64.55854492 29.80395508 65.57045898 30.30200195 66.61303711 C30.77549072 67.60553467 31.24897949 68.59803223 31.73681641 69.62060547 C32.94134921 72.10113555 34.19558192 74.54691787 35.4699707 76.99194336 C37.09887695 80.42553711 37.09887695 80.42553711 36.91137695 83.36303711 C36.09887695 85.42553711 36.09887695 85.42553711 35.09887695 86.42553711 C32.7434082 86.80053711 32.7434082 86.80053711 30.09887695 86.42553711 C28.3605957 84.36303711 28.3605957 84.36303711 26.78637695 81.42553711 C25.9046582 79.79745117 25.9046582 79.79745117 25.00512695 78.13647461 C24.36745755 76.90065523 23.73216182 75.66360903 23.09887695 74.42553711 C22.74825195 73.75167969 22.39762695 73.07782227 22.03637695 72.38354492 C20.26213854 68.96655184 18.50990369 65.53831921 16.7980957 62.08959961 C16.51796631 61.52708496 16.23783691 60.96457031 15.94921875 60.38500977 C14.82732808 57.79979743 13.99005379 55.09906761 13.09887695 52.42553711 C6.82887695 52.42553711 0.55887695 52.42553711 -5.90112305 52.42553711 C-5.87791992 54.71233398 -5.8547168 56.99913086 -5.83081055 59.35522461 C-5.81522045 61.5659937 -5.80307208 63.77675671 -5.79125977 65.98754883 C-5.78119187 67.52598809 -5.76753659 69.06440818 -5.75024414 70.6027832 C-5.72602988 72.81197844 -5.71464814 75.02092106 -5.70581055 77.23022461 C-5.69548798 77.91986298 -5.68516541 78.60950134 -5.67453003 79.32003784 C-5.67412826 81.02354617 -5.77921279 82.72639654 -5.90112305 84.42553711 C-7.90112305 86.42553711 -7.90112305 86.42553711 -10.40112305 86.67553711 C-12.90112305 86.42553711 -12.90112305 86.42553711 -14.90112305 84.42553711 C-15.09951905 81.81630306 -15.17388281 79.31321184 -15.15991211 76.70288086 C-15.16516907 75.50757248 -15.16516907 75.50757248 -15.17053223 74.28811646 C-15.17935583 71.64633549 -15.17349823 69.00482094 -15.16674805 66.36303711 C-15.16809452 64.53222604 -15.1700349 62.70141531 -15.17254639 60.87060547 C-15.1754985 57.03048301 -15.17119721 53.19045347 -15.16186523 49.3503418 C-15.15047064 44.42035017 -15.15702965 39.49057628 -15.16901016 34.56059265 C-15.17622641 30.77915802 -15.17394192 26.99777528 -15.16875458 23.21633911 C-15.16741743 21.39820327 -15.16906807 19.58006277 -15.17371368 17.76193237 C-15.17877508 15.22389185 -15.17107428 12.68620727 -15.15991211 10.14819336 C-15.16396057 9.39176544 -15.16800903 8.63533752 -15.17218018 7.85598755 C-15.09138706 -2.02630929 -7.85744461 0.02056689 0 0 Z " fill="#081319" transform="translate(661.901123046875,608.574462890625)"/>
<path d="M0 0 C2.12987057 -0.01178851 4.25673737 -0.0608464 6.38598633 -0.11157227 C15.50124951 -0.22089112 22.17862802 0.74989072 28.93066406 7.16625977 C35.40641589 14.02414344 36.78690826 20.56249423 36.5793457 29.84350586 C35.62896874 36.92883654 32.20396116 42.8910663 26.84887695 47.61303711 C24.09887695 49.42553711 24.09887695 49.42553711 22.09887695 49.42553711 C23.84439562 53.11517448 25.59609591 56.80184492 27.34887695 60.48803711 C27.84000977 61.52637695 28.33114258 62.5647168 28.8371582 63.63452148 C30.91614747 68.00039895 32.97785455 72.32820267 35.43481445 76.49584961 C37.15142085 79.51804397 37.68247999 81.02118603 37.09887695 84.42553711 C35.09887695 86.42553711 35.09887695 86.42553711 32.78637695 86.55053711 C25.79527897 83.62403098 22.10605868 71.93981519 18.78637695 65.55053711 C18.2365918 64.50639648 17.68680664 63.46225586 17.12036133 62.38647461 C16.34208984 60.89374023 16.34208984 60.89374023 15.5480957 59.37084961 C15.07718506 58.46866699 14.60627441 57.56648437 14.12109375 56.63696289 C13.09887695 54.42553711 13.09887695 54.42553711 13.09887695 52.42553711 C6.82887695 52.42553711 0.55887695 52.42553711 -5.90112305 52.42553711 C-5.87791992 54.71233398 -5.8547168 56.99913086 -5.83081055 59.35522461 C-5.81522045 61.5659937 -5.80307208 63.77675671 -5.79125977 65.98754883 C-5.78119187 67.52598809 -5.76753659 69.06440818 -5.75024414 70.6027832 C-5.72602988 72.81197844 -5.71464814 75.02092106 -5.70581055 77.23022461 C-5.69548798 77.91986298 -5.68516541 78.60950134 -5.67453003 79.32003784 C-5.67412826 81.02354617 -5.77921279 82.72639654 -5.90112305 84.42553711 C-7.90112305 86.42553711 -7.90112305 86.42553711 -10.40112305 86.67553711 C-12.90112305 86.42553711 -12.90112305 86.42553711 -14.90112305 84.42553711 C-15.09951905 81.81630306 -15.17388281 79.31321184 -15.15991211 76.70288086 C-15.16516907 75.50757248 -15.16516907 75.50757248 -15.17053223 74.28811646 C-15.17935583 71.64633549 -15.17349823 69.00482094 -15.16674805 66.36303711 C-15.16809452 64.53222604 -15.1700349 62.70141531 -15.17254639 60.87060547 C-15.1754985 57.03048301 -15.17119721 53.19045347 -15.16186523 49.3503418 C-15.15047064 44.42035017 -15.15702965 39.49057628 -15.16901016 34.56059265 C-15.17622641 30.77915802 -15.17394192 26.99777528 -15.16875458 23.21633911 C-15.16741743 21.39820327 -15.16906807 19.58006277 -15.17371368 17.76193237 C-15.17877508 15.22389185 -15.17107428 12.68620727 -15.15991211 10.14819336 C-15.16396057 9.39176544 -15.16800903 8.63533752 -15.17218018 7.85598755 C-15.09138706 -2.02630929 -7.85744461 0.02056689 0 0 Z " fill="#081219" transform="translate(850.901123046875,608.574462890625)"/>
<path d="M0 0 C2.11933529 -0.01921864 4.23462043 -0.08113259 6.35302734 -0.14453125 C14.88707972 -0.27846587 21.43941379 0.72622574 28.15380859 6.48046875 C34.71584027 13.56719729 36.76729931 20.45435181 36.59130859 30.08984375 C35.63120467 37.5306492 31.9567521 43.43520098 26.09130859 48.04296875 C21.4494092 51.24198735 17.29322143 52.73900968 11.63427734 52.67578125 C10.1019043 52.66611328 10.1019043 52.66611328 8.53857422 52.65625 C7.48347656 52.63949219 6.42837891 52.62273438 5.34130859 52.60546875 C4.266875 52.59644531 3.19244141 52.58742188 2.08544922 52.578125 C-0.55865994 52.55462181 -3.20231013 52.5217645 -5.84619141 52.48046875 C-5.83571777 53.43937012 -5.82524414 54.39827148 -5.81445312 55.38623047 C-5.77829812 58.93827594 -5.75530748 62.49030509 -5.73632812 66.04248047 C-5.72626023 67.58091973 -5.71260494 69.11933982 -5.6953125 70.65771484 C-5.67109824 72.86691008 -5.6597165 75.0758527 -5.65087891 77.28515625 C-5.64055634 77.97479462 -5.63023376 78.66443298 -5.61959839 79.37496948 C-5.61919662 81.07847781 -5.72428115 82.78132818 -5.84619141 84.48046875 C-7.84619141 86.48046875 -7.84619141 86.48046875 -10.34619141 86.73046875 C-12.84619141 86.48046875 -12.84619141 86.48046875 -14.84619141 84.48046875 C-15.04458741 81.8712347 -15.11895117 79.36814348 -15.10498047 76.7578125 C-15.11023743 75.56250412 -15.11023743 75.56250412 -15.11560059 74.3430481 C-15.12442419 71.70126713 -15.11856659 69.05975258 -15.11181641 66.41796875 C-15.11316288 64.58715768 -15.11510326 62.75634695 -15.11761475 60.92553711 C-15.12056686 57.08541465 -15.11626557 53.24538512 -15.10693359 49.40527344 C-15.095539 44.47528181 -15.10209801 39.54550792 -15.11407852 34.61552429 C-15.12129477 30.83408966 -15.11901028 27.05270692 -15.11382294 23.27127075 C-15.11248579 21.45313491 -15.11413643 19.63499441 -15.11878204 17.81686401 C-15.12384344 15.27882349 -15.11614264 12.74113891 -15.10498047 10.203125 C-15.10902893 9.44669708 -15.11307739 8.69026917 -15.11724854 7.91091919 C-15.03671764 -1.93930355 -7.84815287 0.04299376 0 0 Z " fill="#0A141A" transform="translate(1146.84619140625,608.51953125)"/>
<path d="M0 0 C2.11933529 -0.01921864 4.23462043 -0.08113259 6.35302734 -0.14453125 C14.88044862 -0.27842469 21.45195819 0.7161786 28.15380859 6.48046875 C34.48814474 13.4174644 36.76221844 19.56687599 36.59130859 28.98828125 C35.63155486 36.64917267 32.19819537 43.31961631 26.09130859 48.10546875 C21.44364846 51.24192651 17.26239601 52.73866526 11.63427734 52.67578125 C10.1019043 52.66611328 10.1019043 52.66611328 8.53857422 52.65625 C7.48347656 52.63949219 6.42837891 52.62273438 5.34130859 52.60546875 C4.266875 52.59644531 3.19244141 52.58742188 2.08544922 52.578125 C-0.55865994 52.55462181 -3.20231013 52.5217645 -5.84619141 52.48046875 C-5.83571777 53.43937012 -5.82524414 54.39827148 -5.81445312 55.38623047 C-5.77829812 58.93827594 -5.75530748 62.49030509 -5.73632812 66.04248047 C-5.72626023 67.58091973 -5.71260494 69.11933982 -5.6953125 70.65771484 C-5.67109824 72.86691008 -5.6597165 75.0758527 -5.65087891 77.28515625 C-5.64055634 77.97479462 -5.63023376 78.66443298 -5.61959839 79.37496948 C-5.61919662 81.07847781 -5.72428115 82.78132818 -5.84619141 84.48046875 C-7.84619141 86.48046875 -7.84619141 86.48046875 -10.34619141 86.73046875 C-12.84619141 86.48046875 -12.84619141 86.48046875 -14.84619141 84.48046875 C-15.04458741 81.8712347 -15.11895117 79.36814348 -15.10498047 76.7578125 C-15.11023743 75.56250412 -15.11023743 75.56250412 -15.11560059 74.3430481 C-15.12442419 71.70126713 -15.11856659 69.05975258 -15.11181641 66.41796875 C-15.11316288 64.58715768 -15.11510326 62.75634695 -15.11761475 60.92553711 C-15.12056686 57.08541465 -15.11626557 53.24538512 -15.10693359 49.40527344 C-15.095539 44.47528181 -15.10209801 39.54550792 -15.11407852 34.61552429 C-15.12129477 30.83408966 -15.11901028 27.05270692 -15.11382294 23.27127075 C-15.11248579 21.45313491 -15.11413643 19.63499441 -15.11878204 17.81686401 C-15.12384344 15.27882349 -15.11614264 12.74113891 -15.10498047 10.203125 C-15.10902893 9.44669708 -15.11307739 8.69026917 -15.11724854 7.91091919 C-15.03671764 -1.93930355 -7.84815287 0.04299376 0 0 Z " fill="#081219" transform="translate(1052.84619140625,608.51953125)"/>
<path d="M0 0 C2.19170651 -0.0192255 4.37950306 -0.08114436 6.5703125 -0.14453125 C15.24370848 -0.27690557 21.9048232 0.60811929 28.7265625 6.48046875 C30.98046875 8.9296875 30.98046875 8.9296875 32.2890625 11.16796875 C32.74410156 11.91433594 33.19914063 12.66070313 33.66796875 13.4296875 C35.39171984 16.76905769 35.86234104 19.45946582 35.91943359 23.16040039 C35.93549652 24.10891373 35.95155945 25.05742706 35.96810913 26.03468323 C36.01280038 30.38729004 36.05365752 34.73974614 36.07666016 39.0925293 C36.09317202 41.38039353 36.12039831 43.66820721 36.15869141 45.95581055 C36.21380545 49.26768555 36.23539133 52.57835146 36.25 55.890625 C36.27266937 56.90141617 36.29533875 57.91220734 36.31869507 58.95362854 C36.29559038 66.82191882 34.38390581 73.48598467 28.97079468 79.39808655 C23.29073343 84.72964067 17.27402034 86.86281718 9.55078125 86.84375 C8.89954788 86.8442485 8.24831451 86.84474701 7.5773468 86.84526062 C6.21518873 86.84293917 4.85302477 86.83332601 3.4909668 86.81665039 C1.4017954 86.79282888 -0.68611581 86.79613126 -2.77539062 86.80273438 C-13.00631158 86.74759467 -13.00631158 86.74759467 -15.2734375 84.48046875 C-15.4718335 81.8712347 -15.54619726 79.36814348 -15.53222656 76.7578125 C-15.53748352 75.56250412 -15.53748352 75.56250412 -15.54284668 74.3430481 C-15.55167028 71.70126713 -15.54581268 69.05975258 -15.5390625 66.41796875 C-15.54040897 64.58715768 -15.54234935 62.75634695 -15.54486084 60.92553711 C-15.54781295 57.08541465 -15.54351167 53.24538512 -15.53417969 49.40527344 C-15.5227851 44.47528181 -15.5293441 39.54550792 -15.54132462 34.61552429 C-15.54854087 30.83408966 -15.54625637 27.05270692 -15.54106903 23.27127075 C-15.53973188 21.45313491 -15.54138252 19.63499441 -15.54602814 17.81686401 C-15.55108954 15.27882349 -15.54338873 12.74113891 -15.53222656 10.203125 C-15.53627502 9.44669708 -15.54032349 8.69026917 -15.54449463 7.91091919 C-15.46288712 -2.07099109 -7.92425253 0.04200134 0 0 Z M-6.2734375 9.48046875 C-6.2734375 31.92046875 -6.2734375 54.36046875 -6.2734375 77.48046875 C12.66559339 79.19311886 12.66559339 79.19311886 23.4765625 72.10546875 C27.46305448 66.92302918 27.04772306 60.46642761 27.0625 54.26171875 C27.0691568 53.28561646 27.0758136 52.30951416 27.08267212 51.30383301 C27.09276746 49.24635698 27.09749011 47.18884842 27.09716797 45.13134766 C27.10154828 41.99066236 27.13792096 38.85137519 27.17578125 35.7109375 C27.18164869 33.70703603 27.18561857 31.70312792 27.1875 29.69921875 C27.20187103 28.76468872 27.21624207 27.83015869 27.23104858 26.86730957 C27.19179698 21.24668587 26.63475286 17.83031309 22.7265625 13.48046875 C14.7388868 7.354118 14.7388868 7.354118 -6.2734375 9.48046875 Z " fill="#09131A" transform="translate(756.2734375,608.51953125)"/>
<path d="M0 0 C0.68223633 0.00016113 1.36447266 0.00032227 2.06738281 0.00048828 C4.11351103 -0.0038325 6.15738647 -0.03998411 8.203125 -0.078125 C16.68311418 -0.10311514 24.88295106 0.20618582 31.55078125 6.03369141 C38.31663547 13.02980847 39.11532271 21.27508768 39.1171875 30.5546875 C39.12860779 32.13709984 39.12860779 32.13709984 39.14025879 33.7514801 C39.15101845 35.97272384 39.15392981 38.194018 39.14941406 40.4152832 C39.14844133 43.79529884 39.19012215 47.17304552 39.234375 50.55273438 C39.23958255 52.72004739 39.24227018 54.88736823 39.2421875 57.0546875 C39.25858276 58.05495468 39.27497803 59.05522186 39.29187012 60.08580017 C39.21671619 67.79481134 37.19123643 73.464391 31.97172546 79.22003174 C23.91947528 87.03057463 13.82437049 86.82029433 3.2109375 86.68359375 C1.2937793 86.68842773 1.2937793 86.68842773 -0.66210938 86.69335938 C-10.08422175 86.6384345 -10.08422175 86.6384345 -12.3515625 84.37109375 C-12.5499585 81.7618597 -12.62432226 79.25876848 -12.61035156 76.6484375 C-12.61560852 75.45312912 -12.61560852 75.45312912 -12.62097168 74.2336731 C-12.62979528 71.59189213 -12.62393768 68.95037758 -12.6171875 66.30859375 C-12.61853397 64.47778268 -12.62047435 62.64697195 -12.62298584 60.81616211 C-12.62593795 56.97603965 -12.62163667 53.13601012 -12.61230469 49.29589844 C-12.6009101 44.36590681 -12.6074691 39.43613292 -12.61944962 34.50614929 C-12.62666587 30.72471466 -12.62438137 26.94333192 -12.61919403 23.16189575 C-12.61785688 21.34375991 -12.61950752 19.52561941 -12.62415314 17.70748901 C-12.62921454 15.16944849 -12.62151373 12.63176391 -12.61035156 10.09375 C-12.61440002 9.33732208 -12.61844849 8.58089417 -12.62261963 7.80154419 C-12.54861219 -1.25075521 -7.70419993 0.06865129 0 0 Z M-3.3515625 9.37109375 C-3.3515625 31.81109375 -3.3515625 54.25109375 -3.3515625 77.37109375 C12.73228305 78.9992669 12.73228305 78.9992669 25.29296875 72.87109375 C28.46306317 68.79980192 29.76192499 66.01577892 29.82543945 60.90307617 C29.83827469 60.00171432 29.85110992 59.10035248 29.86433411 58.17167664 C29.87172104 57.19978897 29.87910797 56.22790131 29.88671875 55.2265625 C29.8947905 54.22401932 29.90286224 53.22147614 29.91117859 52.18855286 C29.92501113 50.06606777 29.935737 47.94356051 29.94360352 45.82104492 C29.96081612 42.58143814 30.00471025 39.342852 30.04882812 36.10351562 C30.05895537 34.04037208 30.06747137 31.97721987 30.07421875 29.9140625 C30.09172684 28.94824753 30.10923492 27.98243256 30.12727356 26.98735046 C30.10895095 21.28296389 29.64000867 17.77514249 25.6484375 13.37109375 C17.6607618 7.244743 17.6607618 7.244743 -3.3515625 9.37109375 Z " fill="#09131A" transform="translate(371.3515625,608.62890625)"/>
<path d="M0 0 C4.48806784 0.76909442 7.22473618 2.22546651 10.7578125 5.05859375 C11.3765625 5.49171875 11.9953125 5.92484375 12.6328125 6.37109375 C14.58036688 9.29242532 14.10548228 11.61938972 13.7578125 15.05859375 C12.32515955 18.19032675 10.44041449 20.96496301 8.5078125 23.80859375 C7.40693585 25.48397024 6.30669445 27.15976429 5.20703125 28.8359375 C4.63774902 29.69300293 4.0684668 30.55006836 3.48193359 31.43310547 C1.77163118 34.03755069 0.11036932 36.66672396 -1.53515625 39.3125 C-2.06270508 40.16038086 -2.59025391 41.00826172 -3.13378906 41.88183594 C-4.13868747 43.49995725 -5.14203005 45.11904617 -6.14355469 46.73925781 C-13.23674325 58.05587162 -13.23674325 58.05587162 -17.2421875 60.05859375 C-21.56570667 60.77809013 -23.9235312 59.87135608 -27.44140625 57.50390625 C-28.94793183 56.4113776 -30.44383339 55.3040739 -31.9296875 54.18359375 C-32.68830078 53.62800781 -33.44691406 53.07242188 -34.22851562 52.5 C-35.63593674 51.46896776 -37.03904947 50.43200868 -38.4362793 49.38720703 C-40.00593388 48.2324064 -41.62078213 47.13953067 -43.2421875 46.05859375 C-41.47198306 39.27281008 -37.47788929 33.98141833 -33.59179688 28.25488281 C-30.58295451 23.78056868 -27.82125838 19.37251352 -25.453125 14.5234375 C-19.16763665 2.12098476 -14.14083911 -1.41408391 0 0 Z " fill="#FBFBFB" transform="translate(752.2421875,378.94140625)"/>
<path d="M0 0 C5.63076467 4.07235101 9.17586105 8.6704058 10.93359375 15.3984375 C11.25687724 19.21772125 11.2852941 23.02785918 11.3046875 26.859375 C11.31823021 28.51617783 11.31823021 28.51617783 11.33204651 30.20645142 C11.34652362 32.53799744 11.35542942 34.86958385 11.35913086 37.20117188 C11.37103069 40.75460658 11.42024738 44.30630614 11.47070312 47.859375 C11.48016782 50.1301999 11.48740263 52.40103542 11.4921875 54.671875 C11.51171982 55.72732513 11.53125214 56.78277527 11.55137634 57.87020874 C11.50309193 65.8233357 9.43618934 70.54785185 4.125 76.38671875 C3.58746094 76.82371094 3.04992187 77.26070312 2.49609375 77.7109375 C1.96113281 78.16082031 1.42617188 78.61070312 0.875 79.07421875 C-6.29243606 83.96307353 -12.57901652 84.28112603 -21.06640625 83.3984375 C-24.09791266 82.47908486 -26.48670429 81.21866516 -29.06640625 79.3984375 C-29.97390625 78.7796875 -30.88140625 78.1609375 -31.81640625 77.5234375 C-36.25173515 73.33451576 -39.63785327 68.10928072 -40.34729004 61.96626282 C-40.36094604 61.11928329 -40.37460205 60.27230377 -40.38867188 59.3996582 C-40.40788696 58.43127518 -40.42710205 57.46289215 -40.44689941 56.46516418 C-40.45539917 55.42865219 -40.46389893 54.3921402 -40.47265625 53.32421875 C-40.4840564 52.24520798 -40.49545654 51.1661972 -40.50720215 50.05448914 C-40.52607194 47.77244977 -40.53915813 45.49035628 -40.546875 43.20825195 C-40.56624359 39.74006401 -40.6282912 36.27427033 -40.69140625 32.80664062 C-40.70447236 30.58334733 -40.71497093 28.36003716 -40.72265625 26.13671875 C-40.74734985 25.11032791 -40.77204346 24.08393707 -40.79748535 23.02644348 C-40.75157215 15.49833444 -38.77393916 10.30344039 -34.06640625 4.3984375 C-25.06471021 -3.90422531 -11.09001008 -5.91187683 0 0 Z M-29.77627563 13.24832153 C-32.19734238 17.28324188 -31.90068832 21.49131967 -31.828125 26.08203125 C-31.83149368 27.09636734 -31.83486237 28.11070343 -31.83833313 29.15577698 C-31.83803518 31.29311206 -31.82287104 33.43049091 -31.79370117 35.56762695 C-31.75406235 38.82311716 -31.77300014 42.07452155 -31.79882812 45.33007812 C-31.79126713 47.41407817 -31.78031178 49.49806924 -31.765625 51.58203125 C-31.7726091 52.54684921 -31.7795932 53.51166718 -31.78678894 54.50572205 C-31.6535435 60.94591833 -30.33768917 65.47026352 -26.06640625 70.3984375 C-22.82796276 73.13175558 -19.81962225 74.31773579 -15.56640625 74.7734375 C-9.63532178 74.13796416 -5.69221342 73.49124955 -1.69140625 68.8984375 C1.06634717 65.4180642 2.05769751 63.32133321 2.1105957 58.86035156 C2.12343094 57.91887268 2.13626617 56.9773938 2.14949036 56.00738525 C2.15687729 54.98658875 2.16426422 53.96579224 2.171875 52.9140625 C2.17994675 51.86571228 2.18801849 50.81736206 2.19633484 49.73724365 C2.21018309 47.51462461 2.22090192 45.29198423 2.22875977 43.06933594 C2.24595399 39.67601973 2.2898322 36.28368234 2.33398438 32.890625 C2.3441128 30.731778 2.35262843 28.57292272 2.359375 26.4140625 C2.37688309 25.40136292 2.39439117 24.38866333 2.41242981 23.34527588 C2.3945516 17.51482549 1.95334597 13.95804837 -2.06640625 9.3984375 C-11.58873549 2.16146727 -22.26481719 4.26397707 -29.77627563 13.24832153 Z " fill="#0A141B" transform="translate(591.06640625,611.6015625)"/>
<path d="M0 0 C6.7429675 3.71068791 10.49440997 9.21147618 13.875 15.97265625 C13.99014537 17.52244941 14.04446121 19.07697094 14.06787109 20.63085938 C14.08393402 21.59946899 14.09999695 22.56807861 14.11654663 23.56604004 C14.1611319 28.02286063 14.20211066 32.47953143 14.22509766 36.93652344 C14.24159907 39.27972384 14.26881124 41.62287512 14.30712891 43.96582031 C14.36223716 47.35377993 14.38382985 50.74055713 14.3984375 54.12890625 C14.42110687 55.16470825 14.44377625 56.20051025 14.46713257 57.2677002 C14.44430436 65.22805087 12.5643323 71.84610439 7.16537476 77.8848877 C1.58752367 83.19267661 -4.4067043 85.10320012 -12 85.47265625 C-19.10153938 85.26642468 -24.65588215 83.06039117 -29.97265625 78.328125 C-36.61928789 71.09358491 -37.58563187 64.14211563 -37.55859375 54.6328125 C-37.5638356 53.55188828 -37.56907745 52.47096405 -37.57447815 51.35728455 C-37.58088137 49.07877458 -37.57958347 46.80023148 -37.57104492 44.52172852 C-37.56253562 41.04968998 -37.59132115 37.57929815 -37.62304688 34.10742188 C-37.62465918 31.88671924 -37.6240808 29.66601371 -37.62109375 27.4453125 C-37.63232773 26.4148732 -37.64356171 25.3844339 -37.65513611 24.32276917 C-37.58339438 16.8446468 -36.13968543 11.41287381 -31.16015625 5.73046875 C-30.50917969 5.19164062 -29.85820312 4.6528125 -29.1875 4.09765625 C-28.53910156 3.54335938 -27.89070313 2.9890625 -27.22265625 2.41796875 C-19.76540359 -2.72017554 -8.47475117 -2.78607445 0 0 Z M-26.70581055 13.91162109 C-28.79639875 18.42078931 -28.55377638 22.61803706 -28.5234375 27.53125 C-28.52630768 28.55315933 -28.52917786 29.57506866 -28.53213501 30.62794495 C-28.53417324 32.78557897 -28.52866026 34.94323157 -28.51611328 37.10083008 C-28.50007323 40.39511678 -28.51596215 43.68817352 -28.53515625 46.98242188 C-28.53317345 49.08203395 -28.52932902 51.18164526 -28.5234375 53.28125 C-28.52951019 54.26266464 -28.53558289 55.24407928 -28.5418396 56.25523376 C-28.47983069 62.31668754 -27.91502322 66.98385275 -23.58984375 71.6171875 C-17.82565518 76.02509641 -14.30426048 76.57000612 -7.125 75.97265625 C-1.45041022 74.04543708 2.19550871 70.33163883 4.875 64.97265625 C4.97971731 63.48798913 5.02367047 61.9988014 5.03613281 60.51049805 C5.04574036 59.58581223 5.0553479 58.6611264 5.06524658 57.7084198 C5.06949646 56.70636002 5.07374634 55.70430023 5.078125 54.671875 C5.08382507 53.64334915 5.08952515 52.6148233 5.09539795 51.55513 C5.10485619 49.37538688 5.11138519 47.19562939 5.11523438 45.01586914 C5.12493017 41.68415273 5.15594216 38.35305565 5.1875 35.02148438 C5.19403093 32.90495158 5.19928105 30.78841438 5.203125 28.671875 C5.2154718 27.67588791 5.2278186 26.67990082 5.24053955 25.6537323 C5.22119894 19.63364195 4.71024036 15.89649787 0.375 11.42578125 C-4.61949165 7.41978274 -8.22277886 6.56091934 -14.484375 6.625 C-19.65340442 7.3055379 -23.45324342 9.9221403 -26.70581055 13.91162109 Z " fill="#081319" transform="translate(492.125,610.02734375)"/>
<path d="M0 0 C3.50625 -0.0825 7.0125 -0.165 10.625 -0.25 C11.71893066 -0.28641602 12.81286133 -0.32283203 13.93994141 -0.36035156 C19.98650938 -0.42912559 23.41550544 -0.04730659 28 4 C32.65118059 9.27971851 33.30126697 12.32294991 33.2109375 19.2421875 C32.81806102 24.37868369 30.83754119 27.44325506 27.0625 30.75 C22.94863511 33.77243135 20.37511098 35.26121937 15.234375 35.1953125 C14.43225586 35.19031738 13.63013672 35.18532227 12.80371094 35.18017578 C11.79598633 35.16196777 10.78826172 35.14375977 9.75 35.125 C6.5325 35.08375 3.315 35.0425 0 35 C0 23.45 0 11.9 0 0 Z " fill="#FAFAFA" transform="translate(656,618)"/>
<path d="M0 0 C3.50625 -0.0825 7.0125 -0.165 10.625 -0.25 C11.71893066 -0.28641602 12.81286133 -0.32283203 13.93994141 -0.36035156 C19.98650938 -0.42912559 23.41550544 -0.04730659 28 4 C32.65118059 9.27971851 33.30126697 12.32294991 33.2109375 19.2421875 C32.80669561 24.52727588 30.88490065 27.15357329 27.125 30.75 C21.10440145 35.08483095 16.38582819 35.26348831 9.1875 35.125 C6.155625 35.08375 3.12375 35.0425 0 35 C0 23.45 0 11.9 0 0 Z " fill="#F9F9F9" transform="translate(1141,618)"/>
<path d="M0 0 C3.50625 -0.0825 7.0125 -0.165 10.625 -0.25 C11.71893066 -0.28641602 12.81286133 -0.32283203 13.93994141 -0.36035156 C19.98803151 -0.4291429 23.41164536 -0.04334943 28 4 C32.31554723 8.78209288 33.31293503 12.37320207 33.2109375 18.65625 C32.75202842 23.7552398 30.88396579 27.49411325 27.0625 30.8125 C22.93485036 33.76082117 20.3471632 35.26086107 15.234375 35.1953125 C14.43225586 35.19031738 13.63013672 35.18532227 12.80371094 35.18017578 C11.79598633 35.16196777 10.78826172 35.14375977 9.75 35.125 C6.5325 35.08375 3.315 35.0425 0 35 C0 23.45 0 11.9 0 0 Z " fill="#F8F9F9" transform="translate(1047,618)"/>
<path d="M0 0 C3.50625 -0.0825 7.0125 -0.165 10.625 -0.25 C11.71893066 -0.28641602 12.81286133 -0.32283203 13.93994141 -0.36035156 C19.98650938 -0.42912559 23.41550544 -0.04730659 28 4 C32.65118059 9.27971851 33.30126697 12.32294991 33.2109375 19.2421875 C32.80669561 24.52727588 30.88490065 27.15357329 27.125 30.75 C21.10440145 35.08483095 16.38582819 35.26348831 9.1875 35.125 C6.155625 35.08375 3.12375 35.0425 0 35 C0 23.45 0 11.9 0 0 Z " fill="#FAFAFA" transform="translate(845,618)"/>
<path d="M0 0 C2.5 0.25 2.5 0.25 4.5 2.25 C4.698396 4.85923405 4.77275976 7.36232527 4.75878906 9.97265625 C4.7622937 10.7695285 4.76579834 11.56640076 4.76940918 12.38742065 C4.77823278 15.02920162 4.77237518 17.67071617 4.765625 20.3125 C4.76697147 22.14331107 4.76891185 23.9741218 4.77142334 25.80493164 C4.77437545 29.6450541 4.77007417 33.48508363 4.76074219 37.32519531 C4.7493476 42.25518694 4.7559066 47.18496083 4.76788712 52.11494446 C4.77510337 55.89637909 4.77281887 59.67776183 4.76763153 63.459198 C4.76629438 65.27733384 4.76794502 67.09547434 4.77259064 68.91360474 C4.77765204 71.45164526 4.76995123 73.98932984 4.75878906 76.52734375 C4.76283752 77.28377167 4.76688599 78.04019958 4.77105713 78.81954956 C4.72852861 84.02147139 4.72852861 84.02147139 2.5 86.25 C0 86.5 0 86.5 -2.5 86.25 C-5.00437164 83.74562836 -4.74311886 82.23684863 -4.77105713 78.81954956 C-4.76700867 78.06312164 -4.76296021 77.30669373 -4.75878906 76.52734375 C-4.76404602 75.33203537 -4.76404602 75.33203537 -4.76940918 74.11257935 C-4.77823278 71.47079838 -4.77237518 68.82928383 -4.765625 66.1875 C-4.76697147 64.35668893 -4.76891185 62.5258782 -4.77142334 60.69506836 C-4.77437545 56.8549459 -4.77007417 53.01491637 -4.76074219 49.17480469 C-4.7493476 44.24481306 -4.7559066 39.31503917 -4.76788712 34.38505554 C-4.77510337 30.60362091 -4.77281887 26.82223817 -4.76763153 23.040802 C-4.76629438 21.22266616 -4.76794502 19.40452566 -4.77259064 17.58639526 C-4.77765204 15.04835474 -4.76995123 12.51067016 -4.75878906 9.97265625 C-4.76283752 9.21622833 -4.76688599 8.45980042 -4.77105713 7.68045044 C-4.71211771 0.47121177 -4.71211771 0.47121177 0 0 Z " fill="#091319" transform="translate(963.5,608.75)"/>
<path d="M0 0 C1.57258575 -0.00503792 1.57258575 -0.00503792 3.17694092 -0.01017761 C6.61870531 -0.01962285 10.06042074 -0.0216273 13.50219727 -0.02270508 C15.90918497 -0.02592147 18.31617249 -0.02928583 20.72315979 -0.03279114 C25.75896661 -0.03876585 30.7947563 -0.04063268 35.83056641 -0.04003906 C42.26728754 -0.03993739 48.70389851 -0.05360283 55.14059353 -0.07081127 C60.10871379 -0.08195463 65.07680757 -0.08395757 70.04493904 -0.08342934 C72.4174748 -0.08460541 74.79001134 -0.08900619 77.16253471 -0.0967617 C80.4860383 -0.10661136 83.8093047 -0.10366416 87.1328125 -0.09765625 C88.58652 -0.10608551 88.58652 -0.10608551 90.06959534 -0.11468506 C98.30816636 -0.07703691 106.13589133 1.00445845 113.75610352 4.27026367 C114.59399414 4.6234668 115.43188477 4.97666992 116.29516602 5.34057617 C117.20395508 5.73889648 117.20395508 5.73889648 118.13110352 6.14526367 C116.13110352 7.14526367 114.13110352 8.14526367 112.13110352 9.14526367 C112.46110352 7.82526367 112.79110352 6.50526367 113.13110352 5.14526367 C112.20297852 5.33088867 111.27485352 5.51651367 110.31860352 5.70776367 C107.13110352 6.14526367 107.13110352 6.14526367 104.13110352 5.14526367 C103.80110352 4.48526367 103.47110352 3.82526367 103.13110352 3.14526367 C102.14110352 2.81526367 101.15110352 2.48526367 100.13110352 2.14526367 C99.80110352 2.80526367 99.47110352 3.46526367 99.13110352 4.14526367 C97.92698067 3.90176682 97.92698067 3.90176682 96.6985321 3.65335083 C92.44857794 3.04805571 88.3382234 3.00546628 84.05224609 3.01586914 C83.15886032 3.01411682 82.26547455 3.0123645 81.34501648 3.01055908 C78.40520256 3.00617361 75.46544925 3.00906616 72.52563477 3.01245117 C70.47873422 3.01177736 68.43183375 3.01080669 66.38493347 3.009552 C62.1021549 3.00807966 57.81939723 3.01021537 53.53662109 3.01489258 C48.04191591 3.02060041 42.54725945 3.01730126 37.05255604 3.01132011 C32.82931652 3.00771123 28.60608861 3.00885442 24.38284874 3.01144791 C22.35620811 3.01211571 20.32956643 3.01129387 18.30292702 3.00896835 C15.47584857 3.00643532 12.64884983 3.0102912 9.82177734 3.01586914 C8.9817215 3.01384491 8.14166565 3.01182068 7.27615356 3.00973511 C3.97196689 3.02184239 1.28798924 3.09296843 -1.86889648 4.14526367 C-2.52889648 3.81526367 -3.18889648 3.48526367 -3.86889648 3.14526367 C-10.25096635 2.69015753 -15.8344517 3.05168079 -21.86889648 5.14526367 C-22.65264648 5.28963867 -23.43639648 5.43401367 -24.24389648 5.58276367 C-24.78014648 5.76838867 -25.31639648 5.95401367 -25.86889648 6.14526367 C-26.19889648 7.13526367 -26.52889648 8.12526367 -26.86889648 9.14526367 C-27.19889648 8.48526367 -27.52889648 7.82526367 -27.86889648 7.14526367 C-29.51889648 7.14526367 -31.16889648 7.14526367 -32.86889648 7.14526367 C-24.29762348 -0.68068125 -10.82703864 -0.00505236 0 0 Z " fill="#FCE329" transform="translate(706.868896484375,229.854736328125)"/>
<path d="M0 0 C0.33 0 0.66 0 1 0 C1.00219984 1.36856754 1.00219984 1.36856754 1.00444412 2.76478291 C1.04153832 24.99200437 1.10058779 47.21907367 1.18390274 69.44617176 C1.2236674 80.19515538 1.25607298 90.94406605 1.27099609 101.69311523 C1.28402592 111.06486974 1.31102464 120.43646357 1.35461307 129.80812758 C1.37719785 134.76776544 1.39291247 139.72720535 1.39188385 144.68689919 C1.39113548 149.36143524 1.40915724 154.03553422 1.44116783 158.70995712 C1.44964044 160.41946479 1.45143481 162.12902164 1.44580269 163.83854103 C1.41907884 173.20202404 1.864235 181.3754197 6 190 C4.06323242 189.60888672 4.06323242 189.60888672 2 189 C0.98828125 187.2578125 0.98828125 187.2578125 0.3125 185.125 C0.08175781 184.42632812 -0.14898438 183.72765625 -0.38671875 183.0078125 C-0.58910156 182.34523438 -0.79148437 181.68265625 -1 181 C-1.33 180.01 -1.66 179.02 -2 178 C-2.00420213 176.47567824 -1.94460238 174.9506751 -1.84375 173.4296875 C-1.79089844 172.5325 -1.73804688 171.6353125 -1.68359375 170.7109375 C-1.56270885 168.84365157 -1.44035118 166.97646031 -1.31640625 165.109375 C-1.06832275 160.86170147 -0.92986767 156.85212634 -1.53125 152.6328125 C-2.03251193 148.96257309 -1.87499066 145.60562244 -1.53125 141.92041016 C-1.02430318 135.80134859 -0.90663936 129.77654735 -0.96875 123.640625 C-1.03609946 109.37875267 -0.91817349 95.12058234 -0.78125 80.859375 C-0.77017212 79.68809555 -0.75909424 78.5168161 -0.74768066 77.31004333 C-0.67878353 70.03209954 -0.60794684 62.75417587 -0.53643799 55.47625732 C-0.47513115 49.20683723 -0.41537251 42.93740238 -0.35546875 36.66796875 C-0.23846172 24.4452979 -0.11978642 12.2226439 0 0 Z " fill="#F9B91C" transform="translate(663,304)"/>
<path d="M0 0 C0.33 0 0.66 0 1 0 C1.33 48.51 1.66 97.02 2 147 C2.33 147 2.66 147 3 147 C3.38063221 149.3260857 3.71269945 151.66055264 4 154 C3.67 154.33 3.34 154.66 3 155 C2.85207734 157.6786202 2.76490815 160.33468542 2.71875 163.015625 C2.70034058 163.82360535 2.68193115 164.63158569 2.66296387 165.46405029 C2.60403374 168.05929056 2.55134182 170.65459919 2.5 173.25 C2.43216669 176.65117509 2.35837422 180.05214946 2.28125 183.453125 C2.26767456 184.23351135 2.25409912 185.01389771 2.2401123 185.81793213 C2.15311377 189.65414811 1.91602302 193.2672989 1 197 C0.34 196.67 -0.32 196.34 -1 196 C-0.75622037 195.00543273 -0.75622037 195.00543273 -0.50751591 193.9907732 C0.10852974 190.3604381 0.1349229 186.81672222 0.12025452 183.14762878 C0.12110894 182.36339816 0.12196337 181.57916753 0.12284368 180.77117234 C0.12448891 178.14714819 0.11899278 175.52318817 0.11352539 172.89916992 C0.11324329 171.01668296 0.11340171 169.13419588 0.1139679 167.25170898 C0.11425496 162.14265424 0.10837282 157.03362295 0.10139394 151.92457366 C0.09514537 146.58475218 0.09455541 141.24493017 0.09336853 135.90510559 C0.09025966 125.79400825 0.08205223 115.68292172 0.07201904 105.57182914 C0.06084414 94.06044636 0.05534398 82.54906307 0.05032361 71.03767622 C0.03986927 47.35844482 0.02227839 23.67922301 0 0 Z " fill="#F5C22C" transform="translate(837,293)"/>
<path d="M0 0 C-2.93828597 2.50298434 -5.17902761 3.46930939 -9 4 C-9 4.66 -9 5.32 -9 6 C-9.99 5.835 -10.98 5.67 -12 5.5 C-16.41070057 4.94469597 -20.81048957 4.88704207 -25.25 4.875 C-25.94738281 4.87048828 -26.64476562 4.86597656 -27.36328125 4.86132812 C-30.71710237 4.87102125 -33.79422926 4.95895074 -37 6 C-37 5.34 -37 4.68 -37 4 C-37.65490921 4.16298584 -38.30981842 4.32597168 -38.98457336 4.49389648 C-42.75221655 5.12625061 -46.4400373 5.12338695 -50.24682617 5.09765625 C-51.06364365 5.09619598 -51.88046112 5.09473572 -52.72203064 5.0932312 C-54.48935237 5.08943546 -56.25667033 5.08332975 -58.02397728 5.07516479 C-60.8183455 5.06238393 -63.6126662 5.0558816 -66.40705872 5.05102539 C-72.33389387 5.03960984 -78.26068969 5.02035265 -84.1875 5 C-91.06554695 4.97642652 -97.94357179 4.95603838 -104.82164955 4.94406128 C-107.57930593 4.93756166 -110.33689441 4.92505638 -113.0945282 4.91235352 C-114.776804 4.90872266 -116.45908043 4.90537072 -118.14135742 4.90234375 C-118.91177368 4.89717743 -119.68218994 4.89201111 -120.47595215 4.88668823 C-124.36564486 4.80911618 -124.36564486 4.80911618 -128 6 C-132.04545966 5.54202343 -136.01847649 4.84456559 -140 4 C-140 3.34 -140 2.68 -140 2 C-139.02154491 2.00414807 -139.02154491 2.00414807 -138.02332306 2.00837994 C-122.13127219 2.074712 -106.23926965 2.12431565 -90.34711456 2.15543652 C-82.66169759 2.17088741 -74.97637318 2.1919428 -67.29101562 2.22631836 C-60.59031851 2.25627531 -53.88968845 2.27558792 -47.18892622 2.28226548 C-43.64283919 2.28616712 -40.09694397 2.29529908 -36.55091858 2.31719017 C-32.58664428 2.34146344 -28.62255545 2.34196595 -24.65820312 2.34057617 C-23.4900708 2.351362 -22.32193848 2.36214783 -21.1184082 2.3732605 C-14.44159879 2.3479527 -5.85724682 -1.93240683 0 0 Z " fill="#F3AF20" transform="translate(825,504)"/>
<path d="M0 0 C0.33 0 0.66 0 1 0 C1.01030746 0.84746796 1.02061493 1.69493591 1.03123474 2.56808472 C1.1290979 10.5436818 1.23159627 18.5192028 1.33933926 26.49467278 C1.39457017 30.5952165 1.44799044 34.69576735 1.49731445 38.79638672 C1.54495553 42.75161172 1.59729824 46.7067488 1.65294075 50.66186905 C1.67336547 52.17296289 1.69207836 53.68408084 1.70907402 55.19521713 C1.73311551 57.30715424 1.76317022 59.41892468 1.79467773 61.53076172 C1.81022202 62.73433319 1.8257663 63.93790466 1.84178162 65.177948 C1.81018777 67.95074633 1.81018777 67.95074633 3 70 C3.52914687 80.32853991 3.70734724 90.20880088 0 100 C-0.30164063 100.85851562 -0.60328125 101.71703125 -0.9140625 102.6015625 C-2.98636177 108.17823776 -5.6528428 113.08900706 -9 118 C-10 115 -10 115 -9 112 C-8.01 111.505 -8.01 111.505 -7 111 C-7 109.35 -7 107.7 -7 106 C-6.01 106 -5.02 106 -4 106 C-4 104.35 -4 102.7 -4 101 C-3.34 101 -2.68 101 -2 101 C-1.67 97.04 -1.34 93.08 -1 89 C-0.34 89 0.32 89 1 89 C0.93745026 88.3206842 0.87490051 87.64136841 0.81045532 86.94146729 C-0.86444471 68.13177424 -1.13793252 49.65477084 -0.67376709 30.80010986 C-0.59064456 27.30573873 -0.52266592 23.81106936 -0.453125 20.31640625 C-0.31626926 13.54392456 -0.16368709 6.77188535 0 0 Z " fill="#FBB60B" transform="translate(859,378)"/>
<path d="M0 0 C1.33599921 0.32248257 2.66893378 0.65772583 4 1 C6.00946222 0.72949547 8.01354224 0.40632091 10 0 C9.67 0.99 9.34 1.98 9 3 C13.47944035 2.86189095 17.95846783 2.71322584 22.4375 2.5625 C23.71689453 2.52318359 24.99628906 2.48386719 26.31445312 2.44335938 C28.13686523 2.38051758 28.13686523 2.38051758 29.99609375 2.31640625 C31.12200928 2.27974854 32.2479248 2.24309082 33.40795898 2.20532227 C35.92853441 2.28781955 35.92853441 2.28781955 37 1 C38.52519276 1.08937803 40.04681929 1.24537146 41.5625 1.4375 C42.38878906 1.53933594 43.21507812 1.64117188 44.06640625 1.74609375 C45.02353516 1.87177734 45.02353516 1.87177734 46 2 C46 2.33 46 2.66 46 3 C42.5003039 3.79491941 39.27710025 4.12388764 35.69120789 4.12025452 C34.64097946 4.12162918 33.59075104 4.12300385 32.50869751 4.12442017 C31.36718231 4.12082489 30.22566711 4.11722961 29.04956055 4.11352539 C27.83938766 4.11367142 26.62921478 4.11381744 25.38237 4.1139679 C22.07282968 4.11339145 18.76335207 4.10838317 15.45382285 4.10139394 C11.99182556 4.09513404 8.52982739 4.09455451 5.06782532 4.09336853 C-1.48397015 4.09026299 -8.03574888 4.08206007 -14.58753699 4.07201904 C-22.04821 4.06083378 -29.50888382 4.05534137 -36.96956313 4.05032361 C-52.31305176 4.03987681 -67.65652372 4.02229242 -83 4 C-83 3.67 -83 3.34 -83 3 C-82.00441574 2.99191315 -81.00883148 2.98382629 -79.983078 2.97549438 C-70.6097139 2.89807639 -61.23649573 2.81034819 -51.86332226 2.71247292 C-47.04424619 2.66248463 -42.22519231 2.61615484 -37.40600586 2.578125 C-32.756954 2.54130415 -28.10808668 2.49495299 -23.45919228 2.44193649 C-21.68378238 2.4233755 -19.9083329 2.40827386 -18.132864 2.39665604 C-15.64982499 2.37982267 -13.16721021 2.35079509 -10.68432617 2.31884766 C-9.94705292 2.31668747 -9.20977966 2.31452728 -8.45016479 2.31230164 C-4.75752316 2.25143437 -3.15589573 2.10393048 0 0 Z " fill="#F4B42D" transform="translate(772,514)"/>
<path d="M0 0 C2.64 0 5.28 0 8 0 C8 0.33 8 0.66 8 1 C9.918125 1.0309375 9.918125 1.0309375 11.875 1.0625 C12.59429688 1.07410156 13.31359375 1.08570313 14.0546875 1.09765625 C16.08185404 1.12649242 16.08185404 1.12649242 18 0 C18 0.66 18 1.32 18 2 C18.76752594 1.98525131 19.53505188 1.97050262 20.32583618 1.95530701 C30.09201126 1.76969112 39.85837795 1.59782209 49.625 1.4375 C50.40012436 1.42476673 51.17524872 1.41203346 51.97386169 1.39891434 C76.00730402 1.00890529 99.9797596 0.9265377 124 2 C124 2.33 124 2.66 124 3 C82.75 3 41.5 3 -1 3 C-0.67 2.01 -0.34 1.02 0 0 Z " fill="#FED70B" transform="translate(688,264)"/>
<path d="M0 0 C7.38023959 0.08436481 14.7602652 0.17923285 22.14019489 0.28752708 C25.56697348 0.33748172 28.99372136 0.38381157 32.4206543 0.421875 C36.36004083 0.46578887 40.29911308 0.52543728 44.23828125 0.5859375 C46.0852636 0.60326431 46.0852636 0.60326431 47.96955872 0.62094116 C49.11051498 0.64081085 50.25147125 0.66068054 51.42700195 0.68115234 C52.93590752 0.70113785 52.93590752 0.70113785 54.47529602 0.7215271 C57 1 57 1 60 3 C59.42814972 2.99777939 58.85629944 2.99555878 58.26712036 2.99327087 C52.33026757 2.97119517 46.39342638 2.9560838 40.45654297 2.94506836 C38.23909024 2.94003091 36.02164084 2.93320078 33.80419922 2.92456055 C30.62206195 2.91246928 27.43996849 2.9067659 24.2578125 2.90234375 C22.76400558 2.89460182 22.76400558 2.89460182 21.24002075 2.88670349 C20.31921722 2.88662796 19.3984137 2.88655243 18.44970703 2.88647461 C17.23059128 2.88314369 17.23059128 2.88314369 15.98684692 2.87974548 C13.92472641 2.87415342 13.92472641 2.87415342 12 4 C7.95454034 3.54202343 3.98152351 2.84456559 0 2 C0 1.34 0 0.68 0 0 Z " fill="#F6AC14" transform="translate(685,506)"/>
<path d="M0 0 C0.33 0 0.66 0 1 0 C1.57519299 20.55782363 1.57519299 20.55782363 -2 30 C-2.30164063 30.85851562 -2.60328125 31.71703125 -2.9140625 32.6015625 C-4.98636177 38.17823776 -7.6528428 43.08900706 -11 48 C-12 45 -12 45 -11 42 C-10.01 41.505 -10.01 41.505 -9 41 C-9 39.35 -9 37.7 -9 36 C-8.01 36 -7.02 36 -6 36 C-6 34.35 -6 32.7 -6 31 C-5.34 31 -4.68 31 -4 31 C-3.67 27.04 -3.34 23.08 -3 19 C-2.34 19 -1.68 19 -1 19 C-0.67 12.73 -0.34 6.46 0 0 Z " fill="#F7BB37" transform="translate(861,448)"/>
<path d="M0 0 C0.33 0.66 0.66 1.32 1 2 C2.65 1.34 4.3 0.68 6 0 C6.33 0.99 6.66 1.98 7 3 C8.32 2.67 9.64 2.34 11 2 C10.67 2.66 10.34 3.32 10 4 C10.99 4.639375 11.98 5.27875 13 5.9375 C14.485 6.9584375 14.485 6.9584375 16 8 C16 8.33 16 8.66 16 9 C9.03949747 8.61330541 4.0605925 6.36561591 -2 3 C-2 2.34 -2 1.68 -2 1 C-1.34 0.67 -0.68 0.34 0 0 Z " fill="#F9B425" transform="translate(671,507)"/>
<path d="M0 0 C-3.86393374 2.57595583 -7.82448804 3.5992478 -12.375 4.4375 C-12.91125 4.623125 -13.4475 4.80875 -14 5 C-14.33 5.99 -14.66 6.98 -15 8 C-15.33 7.34 -15.66 6.68 -16 6 C-17.65 6 -19.3 6 -21 6 C-15.1310315 0.64137659 -7.63559725 -0.41648712 0 0 Z " fill="#FBE649" transform="translate(695,231)"/>
<path d="M0 0 C0.70125 0.7425 1.4025 1.485 2.125 2.25 C5.90314676 5.86387951 9.69263531 9.18348236 15 10 C14.34 11.32 13.68 12.64 13 14 C12.67 13.01 12.34 12.02 12 11 C10.35 11.66 8.7 12.32 7 13 C6.67 12.34 6.34 11.68 6 11 C6.66 11 7.32 11 8 11 C8 10.34 8 9.68 8 9 C6.68 8.67 5.36 8.34 4 8 C4 7.34 4 6.68 4 6 C3.01 6 2.02 6 1 6 C0.67 4.02 0.34 2.04 0 0 Z " fill="#F9B321" transform="translate(669,494)"/>
<path d="M0 0 C0.66 0 1.32 0 2 0 C1.73876187 7.18404854 -0.70211724 11.32206314 -5 17 C-6 14 -6 14 -5 11 C-4.34 10.67 -3.68 10.34 -3 10 C-3 8.35 -3 6.7 -3 5 C-2.01 5 -1.02 5 0 5 C0 3.35 0 1.7 0 0 Z " fill="#F8B61E" transform="translate(855,479)"/>
<path d="M0 0 C5.76044212 0.60636233 10.72014369 2.75658279 16 5 C14 6 12 7 10 8 C10.33 6.68 10.66 5.36 11 4 C10.071875 4.185625 9.14375 4.37125 8.1875 4.5625 C5 5 5 5 2 4 C0.8125 1.9375 0.8125 1.9375 0 0 Z " fill="#FBE233" transform="translate(809,231)"/>
<path d="M0 0 C0.66 0.66 1.32 1.32 2 2 C0.09118566 3.03544174 -1.82739204 4.05290085 -3.75 5.0625 C-4.81734375 5.63097656 -5.8846875 6.19945312 -6.984375 6.78515625 C-10.02593537 8.01044806 -11.04893565 8.25348607 -14 7 C-14 6.01 -14 5.02 -14 4 C-13.40832031 3.96261719 -12.81664062 3.92523438 -12.20703125 3.88671875 C-7.39332549 3.48623099 -3.99158223 2.9614965 0 0 Z " fill="#F7B01B" transform="translate(832,508)"/>
<path d="M0 0 C0.33 0.99 0.66 1.98 1 3 C-1.3157425 7.631485 -3.30911808 10.3700636 -8.1875 12.1875 C-9.115625 12.455625 -10.04375 12.72375 -11 13 C-11.33 12.34 -11.66 11.68 -12 11 C-11.0925 10.608125 -10.185 10.21625 -9.25 9.8125 C-4.80237201 7.33209208 -2.77882445 4.16823667 0 0 Z " fill="#171D20" transform="translate(497,674)"/>
<path d="M0 0 C0.33 0 0.66 0 1 0 C1.33 1.65 1.66 3.3 2 5 C2.33 5 2.66 5 3 5 C3.34833144 9.87664009 2.41685712 12.77050005 0 17 C-0.66 17 -1.32 17 -2 17 C-1.34 11.39 -0.68 5.78 0 0 Z " fill="#30393D" transform="translate(581,512)"/>
<path d="M0 0 C0.66 0.33 1.32 0.66 2 1 C0.92492371 2.29854721 -0.16043736 3.58858361 -1.25 4.875 C-1.85328125 5.59429687 -2.4565625 6.31359375 -3.078125 7.0546875 C-4.97087634 8.97052118 -6.53657727 9.96449045 -9 11 C-6.36113346 6.7973607 -3.63559661 3.43361902 0 0 Z " fill="#181F23" transform="translate(939,477)"/>
<path d="M0 0 C0.66 0 1.32 0 2 0 C0.62697042 3.36179923 -0.61885209 4.7212881 -3.875 6.3125 C-4.55304687 6.65925781 -5.23109375 7.00601563 -5.9296875 7.36328125 C-8.35737246 8.10990889 -9.63265545 7.82273185 -12 7 C-11.30132813 6.66226563 -10.60265625 6.32453125 -9.8828125 5.9765625 C-8.97273437 5.53054688 -8.06265625 5.08453125 -7.125 4.625 C-6.22007812 4.18414063 -5.31515625 3.74328125 -4.3828125 3.2890625 C-1.90465528 2.09497301 -1.90465528 2.09497301 0 0 Z " fill="#1E2327" transform="translate(993,543)"/>
<path d="M0 0 C0.185625 0.9590625 0.185625 0.9590625 0.375 1.9375 C0.684375 2.9584375 0.684375 2.9584375 1 4 C1.66 4.33 2.32 4.66 3 5 C1.35 6.65 -0.3 8.3 -2 10 C-2.6875 8.375 -2.6875 8.375 -3 6 C-1.5625 2.75 -1.5625 2.75 0 0 Z " fill="#FADF43" transform="translate(645,264)"/>
<path d="M0 0 C1.8125 0.375 1.8125 0.375 4 1 C6.00946222 0.72949547 8.01354224 0.40632091 10 0 C9.67 0.99 9.34 1.98 9 3 C5.04 3 1.08 3 -3 3 C-2.01 2.01 -1.02 1.02 0 0 Z " fill="#FEB00C" transform="translate(772,514)"/>
<path d="M0 0 C2.12038635 2.61514317 4.13091744 5.19637616 6 8 C5.01 8.99 4.02 9.98 3 11 C0.84694043 7.14243493 -0.39253254 4.44870215 0 0 Z " fill="#F7B829" transform="translate(644,474)"/>
<path d="M0 0 C-1.90401138 1.90401138 -3.33425686 2.93520439 -6.046875 3.19921875 C-8.03233273 3.1886578 -10.0169914 3.09915043 -12 3 C-4.82142857 -1.78571429 -4.82142857 -1.78571429 0 0 Z " fill="#F8BA32" transform="translate(825,504)"/>
<path d="M0 0 C0.75 1.625 0.75 1.625 1 4 C-1.02291546 7.61234904 -2.53871879 9.6924792 -6 12 C-5.42316338 8.10635283 -3.45178223 5.98810959 -1 3 C-0.67 2.01 -0.34 1.02 0 0 Z " fill="#F7BA33" transform="translate(835,489)"/>
<path d="M0 0 C1.66832577 2.50248865 2.62381674 4.41149187 3.625 7.1875 C4.01558594 8.26064453 4.01558594 8.26064453 4.4140625 9.35546875 C4.60742188 9.89816406 4.80078125 10.44085938 5 11 C3.68 10.67 2.36 10.34 1 10 C0.37542727 6.56484998 0 3.50935186 0 0 Z " fill="#F5B832" transform="translate(664,483)"/>
<path d="M0 0 C0.625 1.875 0.625 1.875 1 4 C0.34 4.66 -0.32 5.32 -1 6 C-2.01241685 7.32392972 -3.01439389 8.65599167 -4 10 C-4 5.28093812 -2.71245796 3.72962969 0 0 Z " fill="#F9DE3A" transform="translate(651,255)"/>
<path d="M0 0 C0.33 1.32 0.66 2.64 1 4 C0.01 4.33 -0.98 4.66 -2 5 C-2.33 5.99 -2.66 6.98 -3 8 C-4.32 7.67 -5.64 7.34 -7 7 C-5.47005208 5.76302083 -3.94010417 4.52604167 -2.41015625 3.2890625 C-0.86733563 2.0333609 -0.86733563 2.0333609 0 0 Z " fill="#131A1E" transform="translate(687,643)"/>
<path d="M0 0 C1.32 0 2.64 0 4 0 C4 0.66 4 1.32 4 2 C1.69 3.32 -0.62 4.64 -3 6 C-2.67 4.68 -2.34 3.36 -2 2 C-1.34 2.33 -0.68 2.66 0 3 C0 2.01 0 1.02 0 0 Z " fill="#F7B322" transform="translate(838,503)"/>
<path d="M0 0 C-0.99 0.33 -1.98 0.66 -3 1 C-3 1.66 -3 2.32 -3 3 C-4.65 2.67 -6.3 2.34 -8 2 C-8 1.34 -8 0.68 -8 0 C-2.25 -1.125 -2.25 -1.125 0 0 Z " fill="#FCAE11" transform="translate(819,507)"/>
<path d="M0 0 C-0.8125 1.9375 -0.8125 1.9375 -2 4 C-2.99 4.33 -3.98 4.66 -5 5 C-5.66 4.34 -6.32 3.68 -7 3 C-2.25 0 -2.25 0 0 0 Z " fill="#FAE440" transform="translate(674,237)"/>
</svg>
